<svg width="399" height="352" viewBox="0 0 399 352" fill="none" xmlns="http://www.w3.org/2000/svg">
<rect width="399" height="352" rx="55" fill="#FFF9E0"/>
<path d="M251.562 128.75H206.875V194.651L229.515 172.015C230.815 170.78 232.546 170.102 234.339 170.125C236.131 170.148 237.844 170.87 239.112 172.138C240.38 173.406 241.102 175.119 241.125 176.911C241.148 178.704 240.47 180.435 239.235 181.735L204.86 216.11C203.571 217.398 201.823 218.122 200 218.122C198.177 218.122 196.429 217.398 195.14 216.11L160.765 181.735C159.53 180.435 158.852 178.704 158.875 176.911C158.898 175.119 159.62 173.406 160.888 172.138C162.156 170.87 163.869 170.148 165.661 170.125C167.454 170.102 169.185 170.78 170.485 172.015L193.125 194.651V128.75H148.438C142.058 128.757 135.941 131.294 131.43 135.805C126.919 140.316 124.382 146.433 124.375 152.812V242.188C124.382 248.567 126.919 254.684 131.43 259.195C135.941 263.706 142.058 266.243 148.438 266.25H251.562C257.942 266.243 264.059 263.706 268.57 259.195C273.081 254.684 275.618 248.567 275.625 242.188V152.812C275.618 146.433 273.081 140.316 268.57 135.805C264.059 131.294 257.942 128.757 251.562 128.75Z" fill="#F1C40F"/>
<path d="M206.875 80.625C206.875 78.8016 206.151 77.053 204.861 75.7636C203.572 74.4743 201.823 73.75 200 73.75C198.177 73.75 196.428 74.4743 195.139 75.7636C193.849 77.053 193.125 78.8016 193.125 80.625V128.75H206.875V80.625Z" fill="#F1C40F"/>
</svg>
