<svg width="72" height="62" viewBox="0 0 72 62" fill="none" xmlns="http://www.w3.org/2000/svg">
<rect width="72" height="61.5484" rx="13.9355" fill="#F1C40F"/>
<g clip-path="url(#clip0_6_1640)">
<path d="M51.5315 18.423L51.5197 18.4243L20.2386 22.5301C19.9751 22.5638 19.724 22.6623 19.5078 22.8168C19.2916 22.9714 19.1172 23.1771 18.9999 23.4156C18.8744 23.6645 18.8127 23.9408 18.8204 24.2196C18.8282 24.4983 18.9051 24.7707 19.0443 25.0124L22.91 31.7068C23.1007 32.0368 23.4006 32.29 23.758 32.4226C24.1154 32.5553 24.5078 32.5591 24.8677 32.4335L40.1015 27.0303C40.1615 27.0094 40.2269 27.01 40.2865 27.0321C40.3461 27.0542 40.3961 27.0965 40.4279 27.1515C40.4597 27.2066 40.4713 27.271 40.4606 27.3336C40.45 27.3963 40.4178 27.4533 40.3697 27.4948L28.0758 37.9877C27.7871 38.2364 27.5942 38.578 27.5302 38.9536C27.4662 39.3293 27.5352 39.7155 27.7254 40.0457L31.5918 46.7413C31.7248 46.972 31.913 47.166 32.1395 47.306C32.366 47.446 32.6237 47.5276 32.8895 47.5434C33.2098 47.5636 33.529 47.4889 33.8071 47.3287C34.0003 47.2169 34.1692 47.0677 34.3038 46.8898L53.5298 21.9094L53.538 21.8976C53.7934 21.5554 53.9428 21.1459 53.9679 20.7197C53.993 20.2935 53.8926 19.8692 53.6791 19.4995C53.4656 19.1298 53.1483 18.8307 52.7666 18.6394C52.385 18.4481 51.9555 18.3728 51.5315 18.423Z" fill="#100F32"/>
</g>
<defs>
<clipPath id="clip0_6_1640">
<rect width="34.9366" height="34.9366" fill="white" transform="translate(15.6232 21.2686) rotate(-30.0047)"/>
</clipPath>
</defs>
</svg>
