<svg width="33" height="33" viewBox="0 0 33 33" fill="none" xmlns="http://www.w3.org/2000/svg">
<rect width="33" height="33" rx="6" fill="#FFFBEA"/>
<path d="M25.25 9H20.75V7.875C20.75 7.37772 20.5525 6.90081 20.2008 6.54917C19.8492 6.19754 19.3723 6 18.875 6H15.125C14.6277 6 14.1508 6.19754 13.7992 6.54917C13.4475 6.90081 13.25 7.37772 13.25 7.875V9H8.75C8.55109 9 8.36032 9.07902 8.21967 9.21967C8.07902 9.36032 8 9.55109 8 9.75C8 9.94891 8.07902 10.1397 8.21967 10.2803C8.36032 10.421 8.55109 10.5 8.75 10.5H9.54688L10.4375 24.7931C10.5041 26.0517 11.4688 27 12.6875 27H21.3125C22.5373 27 23.4828 26.0728 23.5625 24.7969L24.4531 10.5H25.25C25.4489 10.5 25.6397 10.421 25.7803 10.2803C25.921 10.1397 26 9.94891 26 9.75C26 9.55109 25.921 9.36032 25.7803 9.21967C25.6397 9.07902 25.4489 9 25.25 9ZM14.0267 24H14C13.8056 24.0001 13.6188 23.9248 13.4789 23.7899C13.339 23.6549 13.2569 23.471 13.25 23.2767L12.875 12.7767C12.8679 12.5778 12.9401 12.3842 13.0758 12.2386C13.2114 12.0929 13.3994 12.0071 13.5983 12C13.7972 11.9929 13.9908 12.0651 14.1364 12.2008C14.2821 12.3364 14.3679 12.5244 14.375 12.7233L14.75 23.2233C14.7536 23.3218 14.7377 23.42 14.7033 23.5124C14.6688 23.6048 14.6165 23.6894 14.5494 23.7616C14.4822 23.8337 14.4015 23.8919 14.3118 23.9328C14.2221 23.9737 14.1252 23.9966 14.0267 24ZM17.75 23.25C17.75 23.4489 17.671 23.6397 17.5303 23.7803C17.3897 23.921 17.1989 24 17 24C16.8011 24 16.6103 23.921 16.4697 23.7803C16.329 23.6397 16.25 23.4489 16.25 23.25V12.75C16.25 12.5511 16.329 12.3603 16.4697 12.2197C16.6103 12.079 16.8011 12 17 12C17.1989 12 17.3897 12.079 17.5303 12.2197C17.671 12.3603 17.75 12.5511 17.75 12.75V23.25ZM19.25 9H14.75V7.875C14.7494 7.8256 14.7587 7.77658 14.7774 7.73083C14.796 7.68507 14.8236 7.64351 14.8586 7.60858C14.8935 7.57364 14.9351 7.54604 14.9808 7.52739C15.0266 7.50875 15.0756 7.49943 15.125 7.5H18.875C18.9244 7.49943 18.9734 7.50875 19.0192 7.52739C19.0649 7.54604 19.1065 7.57364 19.1414 7.60858C19.1764 7.64351 19.204 7.68507 19.2226 7.73083C19.2413 7.77658 19.2506 7.8256 19.25 7.875V9ZM20.75 23.2767C20.7431 23.471 20.661 23.6549 20.5211 23.7899C20.3812 23.9248 20.1944 24.0001 20 24H19.9728C19.8743 23.9965 19.7775 23.9736 19.6879 23.9327C19.5983 23.8917 19.5176 23.8335 19.4505 23.7614C19.3833 23.6893 19.3311 23.6046 19.2967 23.5123C19.2623 23.42 19.2464 23.3217 19.25 23.2233L19.625 12.7233C19.6285 12.6248 19.6514 12.528 19.6923 12.4383C19.7332 12.3487 19.7914 12.2679 19.8636 12.2008C19.9357 12.1336 20.0203 12.0813 20.1127 12.0469C20.205 12.0124 20.3032 11.9965 20.4017 12C20.5002 12.0035 20.597 12.0264 20.6867 12.0673C20.7763 12.1082 20.8571 12.1664 20.9242 12.2386C20.9914 12.3107 21.0437 12.3953 21.0781 12.4877C21.1126 12.58 21.1285 12.6782 21.125 12.7767L20.75 23.2767Z" fill="#F1C40F"/>
</svg>
