<svg width="36" height="36" viewBox="0 0 36 36" fill="none" xmlns="http://www.w3.org/2000/svg">
<path d="M14.3438 16.875H4.78125C4.10992 16.875 3.46609 16.6083 2.99139 16.1336C2.51668 15.6589 2.25 15.0151 2.25 14.3438V4.78125C2.25 4.10992 2.51668 3.46609 2.99139 2.99139C3.46609 2.51668 4.10992 2.25 4.78125 2.25H14.3438C15.0151 2.25 15.6589 2.51668 16.1336 2.99139C16.6083 3.46609 16.875 4.10992 16.875 4.78125V14.3438C16.875 15.0151 16.6083 15.6589 16.1336 16.1336C15.6589 16.6083 15.0151 16.875 14.3438 16.875Z" fill="#100F32"/>
<path d="M31.2188 16.875H21.6562C20.9849 16.875 20.3411 16.6083 19.8664 16.1336C19.3917 15.6589 19.125 15.0151 19.125 14.3438V4.78125C19.125 4.10992 19.3917 3.46609 19.8664 2.99139C20.3411 2.51668 20.9849 2.25 21.6562 2.25H31.2188C31.8901 2.25 32.5339 2.51668 33.0086 2.99139C33.4833 3.46609 33.75 4.10992 33.75 4.78125V14.3438C33.75 15.0151 33.4833 15.6589 33.0086 16.1336C32.5339 16.6083 31.8901 16.875 31.2188 16.875Z" fill="#100F32"/>
<path d="M14.3438 33.75H4.78125C4.10992 33.75 3.46609 33.4833 2.99139 33.0086C2.51668 32.5339 2.25 31.8901 2.25 31.2188V21.6562C2.25 20.9849 2.51668 20.3411 2.99139 19.8664C3.46609 19.3917 4.10992 19.125 4.78125 19.125H14.3438C15.0151 19.125 15.6589 19.3917 16.1336 19.8664C16.6083 20.3411 16.875 20.9849 16.875 21.6562V31.2188C16.875 31.8901 16.6083 32.5339 16.1336 33.0086C15.6589 33.4833 15.0151 33.75 14.3438 33.75Z" fill="#100F32"/>
<path d="M31.2188 33.75H21.6562C20.9849 33.75 20.3411 33.4833 19.8664 33.0086C19.3917 32.5339 19.125 31.8901 19.125 31.2188V21.6562C19.125 20.9849 19.3917 20.3411 19.8664 19.8664C20.3411 19.3917 20.9849 19.125 21.6562 19.125H31.2188C31.8901 19.125 32.5339 19.3917 33.0086 19.8664C33.4833 20.3411 33.75 20.9849 33.75 21.6562V31.2188C33.75 31.8901 33.4833 32.5339 33.0086 33.0086C32.5339 33.4833 31.8901 33.75 31.2188 33.75Z" fill="#100F32"/>
</svg>
