<svg width="38" height="38" viewBox="0 0 38 38" fill="none" xmlns="http://www.w3.org/2000/svg">
<path d="M19 33.25C18.5233 33.2494 18.0578 33.1054 17.664 32.8366C11.8312 28.877 9.30552 26.1621 7.91243 24.4647C4.94368 20.8466 3.52239 17.1319 3.56247 13.1093C3.60923 8.49953 7.30755 4.75 11.8067 4.75C15.0783 4.75 17.3441 6.59285 18.6638 8.1277C18.7056 8.17583 18.7572 8.21442 18.8152 8.24087C18.8732 8.26732 18.9362 8.28101 19 8.28101C19.0637 8.28101 19.1267 8.26732 19.1847 8.24087C19.2427 8.21442 19.2944 8.17583 19.3362 8.1277C20.6558 6.59137 22.9217 4.75 26.1933 4.75C30.6924 4.75 34.3907 8.49953 34.4375 13.11C34.4775 17.1334 33.0548 20.848 30.0875 24.4655C28.6944 26.1629 26.1688 28.8778 20.3359 32.8373C19.9421 33.1058 19.4766 33.2496 19 33.25Z" fill="#FA2D2D"/>
</svg>
