<svg width="24" height="24" viewBox="0 0 24 24" fill="none" xmlns="http://www.w3.org/2000/svg">
<rect x="0.5" y="0.5" width="23" height="23" rx="2.5" fill="#9194DD"/>
<rect x="0.5" y="0.5" width="23" height="23" rx="2.5" stroke="#9194DD"/>
<path d="M20.0271 18.8465L16.7953 11.0184C16.7356 10.8738 16.6343 10.7502 16.5043 10.6632C16.3743 10.5763 16.2214 10.5298 16.065 10.5298C15.9086 10.5298 15.7558 10.5763 15.6258 10.6632C15.4958 10.7502 15.3945 10.8738 15.3348 11.0184L12.103 18.8465C12.0628 18.9425 12.042 19.0455 12.0418 19.1496C12.0415 19.2537 12.0618 19.3568 12.1015 19.453C12.1412 19.5492 12.1995 19.6366 12.2731 19.7102C12.3467 19.7838 12.4341 19.8421 12.5303 19.8818C12.6265 19.9215 12.7296 19.9418 12.8337 19.9416C12.9377 19.9413 13.0407 19.9205 13.1367 19.8804C13.2327 19.8402 13.3198 19.7814 13.3931 19.7075C13.4663 19.6335 13.5242 19.5458 13.5634 19.4495L14.2217 17.8555H17.9084L18.5667 19.4495C18.6263 19.5941 18.7276 19.7177 18.8576 19.8048C18.9877 19.8918 19.1406 19.9382 19.297 19.9382C19.4269 19.9381 19.5547 19.906 19.6691 19.8448C19.7836 19.7836 19.8812 19.6951 19.9534 19.5872C20.0255 19.4793 20.0699 19.3552 20.0827 19.226C20.0955 19.0969 20.0763 18.9665 20.0267 18.8465H20.0271ZM14.8741 16.2755L16.0652 13.3902L17.2563 16.2755H14.8741Z" fill="white"/>
<path d="M12.4688 15.5903C12.5915 15.4208 12.642 15.2095 12.609 15.0028C12.5761 14.7961 12.4625 14.6109 12.2932 14.4879C12.286 14.4825 11.7546 14.0882 10.9829 13.2408C12.4067 11.3132 13.2132 9.12021 13.5421 8.08818H14.7009C14.9104 8.08818 15.1114 8.00495 15.2595 7.85679C15.4077 7.70864 15.4909 7.5077 15.4909 7.29818C15.4909 7.08866 15.4077 6.88772 15.2595 6.73957C15.1114 6.59141 14.9104 6.50818 14.7009 6.50818H10.5354V5.79C10.5354 5.58048 10.4522 5.37954 10.3041 5.23139C10.1559 5.08323 9.95497 5 9.74545 5C9.53593 5 9.33499 5.08323 9.18684 5.23139C9.03868 5.37954 8.95545 5.58048 8.95545 5.79V6.50818H4.79C4.58048 6.50818 4.37954 6.59141 4.23139 6.73957C4.08323 6.88772 4 7.08866 4 7.29818C4 7.5077 4.08323 7.70864 4.23139 7.85679C4.37954 8.00495 4.58048 8.08818 4.79 8.08818H11.8731C11.5312 9.05593 10.9017 10.5839 9.94151 11.9793C8.81361 10.4826 8.39455 9.51413 8.39132 9.50623C8.30875 9.3154 8.15427 9.16482 7.9614 9.08715C7.76853 9.00948 7.55281 9.01097 7.36104 9.09131C7.16926 9.17165 7.01689 9.32436 6.93697 9.51631C6.85705 9.70826 6.85603 9.92398 6.93413 10.1167C6.95496 10.1662 7.45661 11.3459 8.83228 13.1305C8.86532 13.1733 8.898 13.2149 8.93067 13.2566C7.5216 14.8491 6.1391 15.837 5.56061 16.1559C5.37666 16.2562 5.2401 16.4255 5.18097 16.6265C5.12185 16.8275 5.14499 17.0438 5.24533 17.2278C5.34566 17.4117 5.51495 17.5483 5.71597 17.6074C5.91699 17.6665 6.13326 17.6434 6.31721 17.543C6.39478 17.5007 8.06239 16.5774 9.96665 14.4696C10.7753 15.3343 11.3312 15.7422 11.3646 15.7659C11.4486 15.8269 11.5439 15.8708 11.6448 15.895C11.7458 15.9192 11.8506 15.9232 11.9532 15.9069C12.0557 15.8905 12.1541 15.8541 12.2425 15.7997C12.331 15.7454 12.4079 15.6741 12.4688 15.5899V15.5903Z" fill="white"/>
</svg>
