<svg width="28" height="28" viewBox="0 0 28 28" fill="none" xmlns="http://www.w3.org/2000/svg">
<path d="M14 12.25C14.9665 12.25 15.75 11.4665 15.75 10.5C15.75 9.5335 14.9665 8.75 14 8.75C13.0335 8.75 12.25 9.5335 12.25 10.5C12.25 11.4665 13.0335 12.25 14 12.25Z" fill="#2ED972"/>
<path d="M14 1.75C9.17547 1.75 5.25 5.5043 5.25 10.1172C5.25 12.314 6.25133 15.2354 8.22609 18.8005C9.81203 21.6628 11.6468 24.2512 12.6011 25.5391C12.7623 25.7591 12.9732 25.9381 13.2165 26.0614C13.4599 26.1848 13.7288 26.2491 14.0016 26.2491C14.2745 26.2491 14.5434 26.1848 14.7868 26.0614C15.0301 25.9381 15.2409 25.7591 15.4022 25.5391C16.3548 24.2512 18.1913 21.6628 19.7772 18.8005C21.7487 15.2365 22.75 12.3151 22.75 10.1172C22.75 5.5043 18.8245 1.75 14 1.75ZM14 14C13.3078 14 12.6311 13.7947 12.0555 13.4101C11.4799 13.0256 11.0313 12.4789 10.7664 11.8394C10.5015 11.1999 10.4322 10.4961 10.5673 9.81718C10.7023 9.13825 11.0356 8.51461 11.5251 8.02513C12.0146 7.53564 12.6383 7.2023 13.3172 7.06725C13.9961 6.9322 14.6999 7.00151 15.3394 7.26642C15.9789 7.53133 16.5256 7.97993 16.9101 8.5555C17.2947 9.13108 17.5 9.80777 17.5 10.5C17.499 11.4279 17.1299 12.3176 16.4738 12.9738C15.8176 13.6299 14.9279 13.999 14 14Z" fill="#2ED972"/>
</svg>
