<svg width="23" height="23" viewBox="0 0 23 23" fill="none" xmlns="http://www.w3.org/2000/svg">
<path d="M16.3125 8.75H8.75V5.3125C8.75 4.58315 9.03973 3.88368 9.55546 3.36796C10.0712 2.85223 10.7707 2.5625 11.5 2.5625C12.2293 2.5625 12.9288 2.85223 13.4445 3.36796C13.9603 3.88368 14.25 4.58315 14.25 5.3125C14.25 5.49484 14.3224 5.6697 14.4514 5.79864C14.5803 5.92757 14.7552 6 14.9375 6C15.1198 6 15.2947 5.92757 15.4236 5.79864C15.5526 5.6697 15.625 5.49484 15.625 5.3125C15.625 4.21848 15.1904 3.16927 14.4168 2.39568C13.6432 1.6221 12.594 1.1875 11.5 1.1875C10.406 1.1875 9.35677 1.6221 8.58318 2.39568C7.8096 3.16927 7.375 4.21848 7.375 5.3125V8.75H6.6875C5.9584 8.7508 5.25939 9.04078 4.74384 9.55634C4.22828 10.0719 3.9383 10.7709 3.9375 11.5V19.0625C3.9383 19.7916 4.22828 20.4906 4.74384 21.0062C5.25939 21.5217 5.9584 21.8117 6.6875 21.8125H16.3125C17.0416 21.8117 17.7406 21.5217 18.2562 21.0062C18.7717 20.4906 19.0617 19.7916 19.0625 19.0625V11.5C19.0617 10.7709 18.7717 10.0719 18.2562 9.55634C17.7406 9.04078 17.0416 8.7508 16.3125 8.75Z" fill="#100F32"/>
</svg>
