<svg width="38" height="38" viewBox="0 0 38 38" fill="none" xmlns="http://www.w3.org/2000/svg">
<g clip-path="url(#clip0_4_481)">
<path d="M37.7506 11.043C37.7506 7.70316 35.2939 5.01645 32.2584 5.01645C28.1467 4.82422 23.9533 4.75 19.6679 4.75H18.332C14.057 4.75 9.85621 4.82422 5.74449 5.01719C2.71637 5.01719 0.259729 7.71875 0.259729 11.0586C0.0741818 13.7 -0.00449008 16.3422 -3.69511e-05 18.9844C-0.00745883 21.6266 0.0766558 24.2713 0.252307 26.9184C0.252307 30.2582 2.70895 32.9672 5.73707 32.9672C10.0566 33.1676 14.4875 33.2567 18.9925 33.2493C23.505 33.2641 27.9235 33.1701 32.248 32.9672C35.2836 32.9672 37.7402 30.2582 37.7402 26.9184C37.9183 24.2688 38 21.6266 37.9925 18.977C38.0094 16.3348 37.9287 13.6901 37.7506 11.043ZM15.3632 26.2653V11.6813L26.125 18.9696L15.3632 26.2653Z" fill="#100F32"/>
</g>
<defs>
<clipPath id="clip0_4_481">
<rect width="38" height="38" fill="white"/>
</clipPath>
</defs>
</svg>
