<svg width="34" height="34" viewBox="0 0 34 34" fill="none" xmlns="http://www.w3.org/2000/svg">
<path d="M29.7945 10.2564L18.202 4.5289C17.8278 4.34539 17.4167 4.24998 17 4.24998C16.5833 4.24998 16.1722 4.34539 15.798 4.5289L4.20551 10.2564C3.58129 10.5593 3.05503 11.0319 2.68706 11.6201C2.31909 12.2083 2.12429 12.8883 2.125 13.5821V25.8413C2.125 27.8919 3.81305 29.5601 5.88824 29.5601H28.1118C30.187 29.5601 31.875 27.8919 31.875 25.8413V13.5821C31.8757 12.8883 31.6809 12.2083 31.3129 11.6201C30.945 11.0319 30.4187 10.5593 29.7945 10.2564ZM16.7596 6.42945C16.8344 6.39275 16.9167 6.37366 17 6.37366C17.0833 6.37366 17.1656 6.39275 17.2404 6.42945L28.4883 11.985L17.0664 17.6295C16.9916 17.6662 16.9094 17.6853 16.826 17.6853C16.7427 17.6853 16.6604 17.6662 16.5856 17.6295L5.33574 12.0733L16.7596 6.42945Z" fill="#100F32"/>
</svg>
