<svg width="385" height="385" viewBox="0 0 385 385" fill="none" xmlns="http://www.w3.org/2000/svg">
<path d="M189.967 375.375C290.136 375.375 371.34 328.49 371.34 270.655C371.34 212.82 290.136 165.935 189.967 165.935C89.7969 165.935 8.59319 212.82 8.59319 270.655C8.59319 328.49 89.7969 375.375 189.967 375.375Z" fill="#F5F5F5"/>
<path d="M104.905 353.376L37.0524 314.206C34.9349 312.982 34.9349 311.003 37.0524 309.779L156.048 241.072C157.24 240.463 158.56 240.146 159.898 240.146C161.237 240.146 162.556 240.463 163.748 241.072L231.57 280.28C233.687 281.504 233.687 283.483 231.57 284.708L112.574 353.376C111.386 353.979 110.072 354.294 108.739 354.294C107.407 354.294 106.093 353.979 104.905 353.376Z" fill="#E0E0E0"/>
<path d="M103.811 306.945C103.811 306.945 103.28 289.235 95.7033 274.944C88.1265 260.653 76.8537 251.135 65.758 249.318C54.6623 247.501 44.7832 257.018 56.1484 265.088C67.5136 273.157 88.1496 282.113 95.7187 309.324L103.811 306.945Z" fill="#F1C40F"/>
<g opacity="0.15">
<path d="M103.811 306.945C103.811 306.945 103.28 289.235 95.7033 274.944C88.1265 260.653 76.8537 251.135 65.758 249.318C54.6623 247.501 44.7832 257.018 56.1484 265.088C67.5136 273.157 88.1496 282.113 95.7187 309.324L103.811 306.945Z" fill="#100F32"/>
</g>
<path d="M100.916 302.125H101.039C101.117 302.101 101.188 302.063 101.25 302.011C101.312 301.959 101.363 301.895 101.399 301.823C101.436 301.751 101.458 301.673 101.463 301.592C101.469 301.512 101.458 301.431 101.432 301.355C92.0612 271.325 70.6321 257.342 60.6221 254.139C60.5451 254.106 60.4621 254.089 60.3784 254.09C60.2947 254.091 60.2121 254.11 60.136 254.145C60.0599 254.18 59.992 254.23 59.9365 254.293C59.881 254.356 59.8393 254.429 59.8139 254.509C59.7886 254.589 59.7802 254.673 59.7893 254.756C59.7985 254.84 59.8249 254.92 59.8669 254.992C59.9089 255.065 59.9656 255.128 60.0334 255.177C60.1011 255.226 60.1784 255.261 60.2602 255.278C70.0777 258.42 91.0602 272.164 100.3 301.717C100.345 301.842 100.429 301.95 100.54 302.023C100.651 302.097 100.783 302.133 100.916 302.125Z" fill="white"/>
<path d="M46.2 292.115C46.97 294.356 49.1953 295.695 51.2897 296.781C53.3841 297.867 55.671 299.029 56.6797 301.17C58.6663 305.497 54.2234 310.903 56.4025 315.146C57.3111 316.917 59.2207 317.987 61.1457 318.526C62.7593 318.908 64.3913 319.209 66.0352 319.427C66.8216 319.49 67.6111 319.502 68.3991 319.465C70.7091 319.35 73.1577 319.465 75.1212 320.828C78.2012 322.969 78.8249 327.181 80.5112 330.546C81.56 332.537 83.0284 334.276 84.8152 335.644C86.6019 337.012 88.6644 337.976 90.86 338.469C94.5098 339.308 100.1 339 101.247 337.452C102.087 336.274 100.269 332.324 100.362 330.877C100.592 327.17 100.471 323.45 99.9999 319.766C99.713 318.095 99.6328 316.396 99.7612 314.707C99.9537 312.82 100.131 310.926 100.293 309.039C100.477 306.991 101.109 305.428 100.562 303.303C99.9552 301.286 99.0466 299.373 97.867 297.628C96.789 295.872 95.693 294.125 94.5791 292.384C93.3475 290.28 91.8575 288.337 90.1439 286.602C88.5907 285.163 86.7608 284.056 84.7658 283.348C82.7708 282.64 80.6525 282.345 78.54 282.482C75.0442 282.736 71.5022 284.353 67.9679 283.86C64.4336 283.368 61.2458 282.136 57.6961 282.051C53.9924 281.959 50.0885 283.167 47.6861 286.132C46.3001 287.795 45.5147 290.082 46.2 292.115Z" fill="#F1C40F"/>
<path d="M99.0374 328.02C99.1768 327.996 99.3009 327.917 99.383 327.802C99.4652 327.687 99.4987 327.544 99.4763 327.404C93.9246 294.448 60.4912 286.594 52.5063 286.448C52.3654 286.448 52.2303 286.504 52.1306 286.603C52.031 286.703 51.975 286.838 51.975 286.979C51.975 287.12 52.031 287.255 52.1306 287.355C52.2303 287.454 52.3654 287.51 52.5063 287.51C60.3141 287.68 93.0237 295.341 98.4522 327.55C98.4589 327.62 98.4794 327.688 98.5127 327.749C98.5459 327.811 98.5911 327.865 98.6457 327.909C98.7002 327.952 98.763 327.985 98.8303 328.004C98.8976 328.023 98.968 328.029 99.0374 328.02Z" fill="white"/>
<path d="M62.9321 308.162C63.0387 308.152 63.1402 308.112 63.2247 308.046C63.3171 307.962 72.7573 300.262 86.8868 303.719C87.0247 303.753 87.1702 303.73 87.2915 303.656C87.4128 303.583 87.4999 303.464 87.5336 303.326C87.5673 303.188 87.5449 303.043 87.4712 302.921C87.3976 302.8 87.2788 302.713 87.1409 302.679C72.4647 299.099 62.6395 307.145 62.5394 307.23C62.4825 307.275 62.4353 307.331 62.4008 307.394C62.3663 307.458 62.3451 307.528 62.3386 307.6C62.3321 307.672 62.3405 307.745 62.3631 307.814C62.3857 307.882 62.4221 307.946 62.4701 308C62.5293 308.061 62.6018 308.107 62.682 308.135C62.7622 308.164 62.8478 308.173 62.9321 308.162Z" fill="white"/>
<path d="M223.485 21.7217L112.104 86.0244C111.01 86.742 110.1 87.7069 109.447 88.8412C108.794 89.9754 108.417 91.2473 108.347 92.554V343.166C108.347 345.568 110.033 346.546 112.104 345.337L223.485 281.05C224.578 280.331 225.488 279.366 226.141 278.232C226.793 277.098 227.171 275.827 227.242 274.52V23.87C227.242 21.4907 225.556 20.5128 223.485 21.7217ZM221.822 256.572C221.822 258.628 220.382 259.937 218.595 260.961L116.617 319.866C114.838 320.89 113.39 320.058 113.39 317.995V110.387C113.452 109.267 113.776 108.176 114.336 107.204C114.897 106.231 115.678 105.404 116.617 104.789L218.595 45.9151C220.382 44.8833 221.822 45.7226 221.822 47.7785V256.572Z" fill="#F1C40F"/>
<path opacity="0.5" d="M223.485 21.7217L112.104 86.0244C111.01 86.742 110.1 87.7069 109.447 88.8412C108.794 89.9754 108.417 91.2473 108.347 92.554V343.166C108.347 345.568 110.033 346.546 112.104 345.337L223.485 281.05C224.578 280.331 225.488 279.366 226.141 278.232C226.793 277.098 227.171 275.827 227.242 274.52V23.87C227.242 21.4907 225.556 20.5128 223.485 21.7217ZM221.822 256.572C221.822 258.628 220.382 259.937 218.595 260.961L116.617 319.866C114.838 320.89 113.39 320.058 113.39 317.995V110.387C113.452 109.267 113.776 108.176 114.336 107.204C114.897 106.231 115.678 105.404 116.617 104.789L218.595 45.9151C220.382 44.8833 221.822 45.7226 221.822 47.7785V256.572Z" fill="#100F32"/>
<path d="M111.65 345.576C110.525 346.052 109.311 346.278 108.09 346.238C106.87 346.198 105.672 345.894 104.581 345.345L100.277 342.85C99.176 342.14 98.2593 341.178 97.602 340.044C96.9448 338.91 96.5659 337.637 96.4964 336.328V85.7241C96.5212 84.7525 96.7439 83.7962 97.1509 82.9136C97.2826 82.6026 97.4317 82.2992 97.5975 82.005L109.456 88.8503C109.202 89.292 108.983 89.7528 108.801 90.2286C108.516 90.9662 108.362 91.748 108.347 92.5386V343.166C108.347 345.376 109.779 346.384 111.65 345.576Z" fill="#F1C40F"/>
<path opacity="0.6" d="M111.65 345.576C110.525 346.052 109.311 346.278 108.09 346.238C106.87 346.198 105.672 345.894 104.581 345.345L100.277 342.85C99.176 342.14 98.2593 341.178 97.602 340.044C96.9448 338.91 96.5659 337.637 96.4964 336.328V85.7241C96.5212 84.7525 96.7439 83.7962 97.1509 82.9136C97.2826 82.6026 97.4317 82.2992 97.5975 82.005L109.456 88.8503C109.202 89.292 108.983 89.7528 108.801 90.2286C108.516 90.9662 108.362 91.748 108.347 92.5386V343.166C108.347 345.376 109.779 346.384 111.65 345.576Z" fill="#100F32"/>
<path d="M170.262 295.988C172.187 295.988 172.395 298.144 172.395 299.068C172.276 300.929 171.727 302.738 170.792 304.351C169.857 305.965 168.561 307.34 167.005 308.37C166.379 308.759 165.663 308.985 164.926 309.024C163.001 309.024 162.793 306.86 162.793 305.944C162.911 304.082 163.459 302.273 164.394 300.659C165.33 299.045 166.627 297.67 168.183 296.642C168.809 296.249 169.525 296.024 170.262 295.988ZM170.262 294.833C169.322 294.868 168.406 295.146 167.606 295.641C165.882 296.775 164.45 298.299 163.424 300.088C162.398 301.878 161.807 303.884 161.7 305.944C161.7 308.631 163.04 310.187 164.988 310.187C165.93 310.152 166.845 309.87 167.644 309.371C169.377 308.246 170.819 306.726 171.853 304.937C172.886 303.148 173.481 301.139 173.589 299.076C173.589 296.388 172.249 294.833 170.301 294.833H170.262Z" fill="#37474F"/>
<path d="M167.714 57.75C169.107 56.98 170.239 57.596 170.239 59.2053C170.191 60.0813 169.937 60.9337 169.499 61.6935C169.06 62.4533 168.448 63.0992 167.714 63.5789C166.32 64.3489 165.188 63.7329 165.188 62.1159C165.236 61.2407 165.489 60.3892 165.928 59.6305C166.367 58.8718 166.979 58.2275 167.714 57.75Z" fill="#37474F"/>
<path d="M154.146 73.3579L181.443 57.5883C182.606 56.9184 183.553 57.3958 183.553 58.6509C183.5 59.3593 183.281 60.0454 182.915 60.6539C182.549 61.2625 182.044 61.7764 181.443 62.1544L154.146 77.924C152.976 78.5939 152.037 78.1165 152.037 76.8537C152.09 76.1465 152.308 75.4617 152.675 74.8544C153.041 74.2472 153.545 73.7346 154.146 73.3579Z" fill="#37474F"/>
<path d="M221.822 256.587C221.822 258.643 220.382 259.952 218.595 260.976L116.617 319.866C114.838 320.89 113.39 320.058 113.39 317.995V110.387C113.452 109.267 113.776 108.176 114.336 107.204C114.897 106.231 115.678 105.404 116.617 104.789L218.595 45.9151C220.382 44.8833 221.822 45.7226 221.822 47.7785V256.587Z" fill="#F1C40F"/>
<path opacity="0.8" d="M221.822 256.587C221.822 258.643 220.382 259.952 218.595 260.976L116.617 319.866C114.838 320.89 113.39 320.058 113.39 317.995V110.387C113.452 109.267 113.776 108.176 114.336 107.204C114.897 106.231 115.678 105.404 116.617 104.789L218.595 45.9151C220.382 44.8833 221.822 45.7226 221.822 47.7785V256.587Z" fill="white"/>
<path d="M199.592 262.154L124.132 305.721C122.707 306.545 121.552 305.436 121.552 303.241V298.76C121.552 296.565 122.707 294.14 124.132 293.301L199.592 249.734C201.016 248.91 202.171 250.019 202.171 252.213V256.687C202.171 258.889 201.016 261.33 199.592 262.154Z" fill="white"/>
<path d="M206.198 256.348V247.94C206.198 246.847 206.537 246.338 207.684 246.238L215.654 245.761C216.478 245.915 216.709 246.631 216.17 247.355L207.168 257.057C206.66 257.596 206.198 257.449 206.198 256.348Z" fill="#F1C40F"/>
<path d="M227.212 23.2925C226.942 21.3367 225.371 20.6283 223.485 21.7525L112.104 86.0244C110.99 86.7178 110.074 87.6889 109.448 88.8426L97.5898 81.9973C98.2246 80.8508 99.145 79.8879 100.262 79.2022L211.627 14.8841C212.795 14.2915 214.086 13.9827 215.396 13.9827C216.706 13.9827 217.997 14.2915 219.165 14.8841L223.485 17.3635C224.493 18.0289 225.347 18.9022 225.99 19.9248C226.632 20.9474 227.049 22.0956 227.212 23.2925Z" fill="#F1C40F"/>
<path opacity="0.3" d="M227.212 23.2925C226.942 21.3367 225.371 20.6283 223.485 21.7525L112.104 86.0244C110.99 86.7178 110.074 87.6889 109.448 88.8426L97.5898 81.9973C98.2246 80.8508 99.145 79.8879 100.262 79.2022L211.627 14.8841C212.795 14.2915 214.086 13.9827 215.396 13.9827C216.706 13.9827 217.997 14.2915 219.165 14.8841L223.485 17.3635C224.493 18.0289 225.347 18.9022 225.99 19.9248C226.632 20.9474 227.049 22.0956 227.212 23.2925Z" fill="#100F32"/>
<path d="M191.491 255.394L188.773 253.854C188.484 253.662 188.244 253.406 188.071 253.105C187.899 252.804 187.799 252.467 187.78 252.121V182.167C187.799 181.82 187.9 181.482 188.074 181.181C188.248 180.88 188.49 180.624 188.781 180.434L327.535 100.354C327.845 100.195 328.188 100.112 328.536 100.112C328.884 100.112 329.227 100.195 329.537 100.354L332.247 101.894C332.539 102.084 332.781 102.34 332.955 102.641C333.129 102.942 333.23 103.279 333.248 103.627V173.55C333.23 173.898 333.13 174.236 332.956 174.537C332.782 174.838 332.539 175.094 332.247 175.283L193.501 255.363C193.192 255.525 192.849 255.612 192.5 255.617C192.151 255.622 191.805 255.546 191.491 255.394Z" fill="#37474F"/>
<path d="M193.493 183.16L332.24 103.08C332.794 102.764 333.241 103.018 333.241 103.657V173.581C333.222 173.928 333.122 174.266 332.948 174.568C332.774 174.869 332.531 175.124 332.24 175.314L193.493 255.394C192.939 255.709 192.492 255.447 192.492 254.816V184.892C192.511 184.545 192.611 184.207 192.785 183.906C192.959 183.605 193.201 183.349 193.493 183.16Z" fill="#455A64"/>
<path d="M193.27 255.494C192.983 255.599 192.678 255.644 192.373 255.625C192.068 255.607 191.771 255.525 191.499 255.386L188.789 253.846C188.498 253.655 188.256 253.399 188.082 253.099C187.909 252.798 187.808 252.46 187.788 252.113V182.167C187.798 181.818 187.899 181.479 188.08 181.181L192.793 183.899C192.612 184.197 192.511 184.536 192.5 184.885V254.808C192.5 255.355 192.816 255.64 193.27 255.494Z" fill="#263238"/>
<path d="M199.723 212.897L207.423 208.447C208.347 207.915 209.094 208.293 209.094 209.286C209.053 209.847 208.88 210.39 208.59 210.872C208.3 211.354 207.9 211.76 207.423 212.058L199.723 216.509C198.806 217.04 198.059 216.663 198.059 215.662C198.101 215.103 198.273 214.562 198.562 214.082C198.851 213.601 199.248 213.196 199.723 212.897Z" fill="#E0E0E0"/>
<path d="M213.151 205.136L232.771 193.809C233.687 193.278 234.434 193.655 234.434 194.656C234.393 195.215 234.22 195.756 233.932 196.236C233.643 196.716 233.245 197.122 232.771 197.42L213.144 208.755C212.227 209.286 211.48 208.909 211.48 207.908C211.521 207.347 211.694 206.803 211.984 206.322C212.274 205.84 212.674 205.434 213.151 205.136Z" fill="#E0E0E0"/>
<path d="M237.668 190.96L258.82 178.763C259.744 178.232 260.491 178.609 260.491 179.603C260.45 180.163 260.278 180.707 259.987 181.189C259.697 181.67 259.297 182.077 258.82 182.375L237.668 194.571C236.744 195.103 235.997 194.725 235.997 193.732C236.038 193.171 236.211 192.628 236.501 192.146C236.791 191.664 237.191 191.258 237.668 190.96Z" fill="#E0E0E0"/>
<path d="M199.715 191.229L219.342 179.903C220.258 179.371 221.005 179.749 221.005 180.742C220.965 181.302 220.793 181.845 220.504 182.326C220.216 182.808 219.817 183.215 219.342 183.514L199.715 194.81C198.799 195.341 198.052 194.964 198.052 193.963C198.098 193.41 198.272 192.875 198.561 192.4C198.85 191.926 199.245 191.525 199.715 191.229Z" fill="#E0E0E0"/>
<path d="M224.239 177.1L242.381 166.628C243.305 166.097 244.044 166.474 244.044 167.475C244.004 168.034 243.833 168.576 243.544 169.057C243.255 169.537 242.856 169.942 242.381 170.239L224.232 180.719C223.315 181.25 222.568 180.873 222.568 179.872C222.609 179.311 222.782 178.768 223.072 178.286C223.362 177.804 223.762 177.398 224.239 177.1Z" fill="#E0E0E0"/>
<path d="M247.386 163.694L259.351 156.764C260.268 156.233 261.015 156.61 261.015 157.611C260.973 158.17 260.801 158.711 260.512 159.191C260.223 159.672 259.826 160.077 259.351 160.376L247.386 167.306C246.462 167.837 245.715 167.46 245.715 166.459C245.757 165.899 245.93 165.357 246.22 164.877C246.51 164.397 246.91 163.991 247.386 163.694Z" fill="#E0E0E0"/>
<path d="M199.715 223.716L219.342 212.389C220.258 211.858 221.005 212.235 221.005 213.236C220.964 213.795 220.792 214.336 220.503 214.816C220.214 215.296 219.816 215.702 219.342 216L199.715 227.335C198.799 227.866 198.052 227.489 198.052 226.488C198.092 225.928 198.264 225.385 198.553 224.903C198.842 224.422 199.24 224.015 199.715 223.716Z" fill="#E0E0E0"/>
<path d="M224.239 209.563L242.381 199.091C243.305 198.552 244.044 198.937 244.044 199.931C244.005 200.491 243.833 201.034 243.544 201.516C243.255 201.998 242.857 202.404 242.381 202.703L224.232 213.175C223.315 213.706 222.568 213.329 222.568 212.335C222.609 211.774 222.782 211.231 223.072 210.749C223.362 210.267 223.762 209.861 224.239 209.563Z" fill="#E0E0E0"/>
<path d="M247.386 196.181L259.351 189.289C260.268 188.758 261.015 189.135 261.015 190.128C260.974 190.689 260.803 191.231 260.514 191.713C260.225 192.194 259.827 192.601 259.351 192.9L247.386 199.83C246.462 200.362 245.715 199.984 245.715 198.983C245.751 198.417 245.921 197.868 246.211 197.38C246.502 196.893 246.905 196.482 247.386 196.181Z" fill="#E0E0E0"/>
<path d="M199.715 202.063L236.713 180.711C237.637 180.18 238.384 180.557 238.384 181.558C238.342 182.118 238.169 182.66 237.879 183.14C237.589 183.62 237.189 184.025 236.713 184.323L199.715 205.682C198.799 206.214 198.052 205.836 198.052 204.835C198.092 204.275 198.264 203.733 198.553 203.251C198.842 202.769 199.24 202.363 199.715 202.063Z" fill="#E0E0E0"/>
<path d="M242.08 177.601L258.797 167.975C259.721 167.444 260.468 167.822 260.468 168.815C260.427 169.376 260.255 169.919 259.964 170.401C259.674 170.883 259.274 171.289 258.797 171.587L242.08 181.212C241.156 181.751 240.409 181.366 240.409 180.373C240.45 179.812 240.623 179.268 240.913 178.786C241.203 178.305 241.603 177.898 242.08 177.601Z" fill="#E0E0E0"/>
<path d="M330.114 176.507L331.231 185.747C331.257 185.96 331.223 186.176 331.133 186.371C331.043 186.566 330.9 186.732 330.721 186.851C330.542 186.969 330.333 187.035 330.119 187.041C329.904 187.048 329.692 186.994 329.506 186.887L320.667 181.82L330.114 176.507Z" fill="#455A64"/>
<path d="M207.43 230.415C207.289 230.353 207.137 230.319 206.982 230.317C206.828 230.314 206.674 230.343 206.531 230.4C206.388 230.457 206.257 230.543 206.147 230.651C206.037 230.759 205.95 230.888 205.89 231.031L201.532 241.403L200.493 240.394C200.269 240.208 199.983 240.113 199.692 240.129C199.401 240.145 199.127 240.27 198.924 240.479C198.722 240.689 198.606 240.967 198.6 241.258C198.593 241.549 198.698 241.832 198.891 242.049L201.139 244.236C201.346 244.437 201.621 244.552 201.909 244.56C201.986 244.567 202.064 244.567 202.14 244.56C202.324 244.523 202.495 244.442 202.64 244.324C202.785 244.206 202.899 244.054 202.972 243.882L207.985 231.947C208.114 231.67 208.128 231.354 208.024 231.067C207.92 230.779 207.707 230.545 207.43 230.415Z" fill="#F1C40F"/>
<path d="M217.194 224.74C217.053 224.677 216.9 224.643 216.746 224.64C216.591 224.636 216.437 224.664 216.294 224.722C216.15 224.779 216.019 224.865 215.909 224.974C215.799 225.083 215.713 225.213 215.654 225.356L211.296 235.728L210.256 234.719C210.149 234.602 210.019 234.508 209.875 234.443C209.73 234.378 209.573 234.343 209.414 234.342C209.255 234.34 209.098 234.371 208.952 234.433C208.806 234.495 208.674 234.586 208.565 234.702C208.455 234.817 208.371 234.953 208.317 235.102C208.262 235.252 208.24 235.41 208.249 235.569C208.259 235.727 208.302 235.882 208.374 236.023C208.447 236.164 208.547 236.289 208.67 236.39L210.918 238.577C211.055 238.707 211.22 238.802 211.401 238.854C211.582 238.907 211.773 238.914 211.958 238.877C212.142 238.839 212.314 238.757 212.459 238.637C212.603 238.518 212.717 238.365 212.79 238.192L217.802 226.264C217.863 226.125 217.896 225.974 217.898 225.821C217.9 225.669 217.873 225.517 217.816 225.375C217.759 225.234 217.675 225.104 217.569 224.995C217.462 224.886 217.334 224.799 217.194 224.74Z" fill="#F1C40F"/>
<path d="M298.067 125.703C282.559 134.665 269.985 156.433 269.985 174.343C269.985 192.254 282.59 199.515 298.067 190.56C313.544 181.604 326.164 159.821 326.149 141.919C326.134 124.016 313.559 116.747 298.067 125.703Z" fill="#F1C40F"/>
<path opacity="0.4" d="M298.067 125.703C282.559 134.665 269.985 156.433 269.985 174.343C269.985 192.254 282.59 199.515 298.067 190.56C313.544 181.604 326.164 159.821 326.149 141.919C326.134 124.016 313.559 116.747 298.067 125.703Z" fill="white"/>
<path d="M241.01 165.712C244.346 171.516 247.975 177.147 251.882 182.582C252.845 183.876 255.555 187.441 256.972 187.795C258.782 188.242 260.314 186.817 261.269 186.155C264.533 183.884 281.427 167.09 281.427 167.09C286.686 159.76 285.362 155.086 284.646 155.086C283.93 155.086 278.54 153.669 273.927 158.166C270.432 161.577 258.489 173.92 258.489 173.92C255.671 170.609 253.823 168.969 251.012 165.65C249.642 164.033 247.563 162.293 247.463 160.075C247.474 159.058 247.567 158.044 247.74 157.042C247.902 154.722 247.752 152.391 247.293 150.112C247.283 150.008 247.257 149.907 247.216 149.811C247.143 149.682 247.025 149.583 246.885 149.534C246.625 149.459 246.348 149.473 246.097 149.574C245.846 149.674 245.636 149.855 245.499 150.088C245.236 150.56 245.093 151.089 245.083 151.628C245.067 152.159 244.949 152.682 244.737 153.168C244.691 153.268 244.622 153.355 244.537 153.423C244.439 153.481 244.327 153.512 244.213 153.515C243.566 153.515 243.228 152.814 242.989 152.306C242.436 151.118 241.987 149.884 241.649 148.618C241.418 147.748 241.018 146.908 240.717 146.046C240.601 145.532 240.333 145.065 239.947 144.706C239.247 144.198 238.261 144.483 237.491 144.868C237.059 145.079 236.651 145.338 236.275 145.638C235.171 146.652 234.441 148.008 234.203 149.488C233.895 151.204 234.012 152.97 234.542 154.631C235.207 156.963 236.304 159.149 237.776 161.076C238.854 162.616 240.04 164.087 241.01 165.712Z" fill="#FFA8A7"/>
<path d="M286.147 155.063C286.147 155.063 280.888 152.991 276.137 156.056C271.386 159.121 258.489 173.928 258.489 173.928L255.247 170.324C255.247 170.324 253.53 176.692 248.156 177.254C248.156 177.254 252.375 184.138 254.731 186.679C257.088 189.22 258.966 188.75 261.661 186.679C264.356 184.608 277.493 172.48 277.493 172.48C280.418 170.675 282.779 168.086 284.309 165.008C285.839 161.93 286.475 158.484 286.147 155.063Z" fill="#F1C40F"/>
<path opacity="0.25" d="M286.147 155.063C286.147 155.063 280.888 152.991 276.137 156.056C271.386 159.121 258.489 173.928 258.489 173.928L255.247 170.324C255.247 170.324 253.53 176.692 248.156 177.254C248.156 177.254 252.375 184.138 254.731 186.679C257.088 189.22 258.966 188.75 261.661 186.679C264.356 184.608 277.493 172.48 277.493 172.48C280.418 170.675 282.779 168.086 284.309 165.008C285.839 161.93 286.475 158.484 286.147 155.063Z" fill="#100F32"/>
<path d="M312.805 170.886L312.574 177.531C311.996 178.301 311.396 179.002 310.787 179.71C307.183 184.012 302.883 187.679 298.067 190.56C289.204 195.68 281.304 195.495 276.16 191.06C276.091 182.975 276.107 172.973 276.538 168.461C277.308 160.237 280.072 156.056 284.238 155.147C286.224 154.708 301.116 156.064 301.116 156.064L309.363 158.127C309.541 158.211 309.713 158.306 309.879 158.412C311.142 159.182 311.765 160.622 312.42 162.693C312.889 164.195 312.805 168.091 312.805 170.886Z" fill="#F5F5F5"/>
<path d="M300.215 131.67C300.072 133.662 299.341 135.567 298.114 137.143C296.887 138.719 295.22 139.895 293.324 140.523C291.428 141.151 289.389 141.201 287.464 140.669C285.539 140.136 283.815 139.044 282.512 137.531C281.208 136.017 280.383 134.151 280.141 132.169C279.9 130.186 280.252 128.176 281.153 126.394C282.055 124.612 283.465 123.138 285.205 122.158C286.946 121.178 288.938 120.737 290.929 120.89C293.587 121.095 296.057 122.344 297.797 124.364C299.537 126.384 300.406 129.011 300.215 131.67Z" fill="#263238"/>
<path d="M306.999 139.37C306.999 139.37 304.781 146.908 304.027 148.117C303.531 148.857 302.77 149.378 301.902 149.573L302.433 144.183L306.999 139.37Z" fill="#263238"/>
<path d="M305.736 128.244C305.823 128.007 305.958 127.79 306.133 127.609C306.308 127.427 306.519 127.284 306.753 127.189C307.067 127.094 307.4 127.075 307.723 127.135C309.763 127.404 310.949 129.237 311.065 131.2C311.087 132.641 310.806 134.071 310.241 135.397C309.903 136.441 309.364 137.409 308.655 138.246C308.315 138.622 307.9 138.924 307.438 139.132C306.975 139.34 306.474 139.45 305.967 139.455C305.279 139.395 304.587 139.416 303.904 139.516C304.135 138.11 304.371 136.706 304.612 135.304L305.19 131.855C305.274 131.347 305.382 130.838 305.444 130.315C305.455 129.629 305.548 128.946 305.721 128.282L305.736 128.244Z" fill="#263238"/>
<path d="M302.98 139.447C303.565 139.863 304.52 138.746 305.359 138.007C306.198 137.268 308.739 136.375 309.779 139.077C310.818 141.78 308.239 145.153 306.214 145.622C302.772 146.392 302.433 144.221 302.433 144.221L301.247 156.695C296.627 161.731 284.977 161.546 290.236 156.318L290.621 151.482C289.104 151.604 287.579 151.565 286.07 151.367C283.622 150.797 282.22 148.726 281.674 145.977C280.796 141.58 280.603 138.076 282.274 129.699C284.107 120.513 294.895 121.229 300.439 125.356C305.983 129.483 302.98 139.447 302.98 139.447Z" fill="#FFA8A7"/>
<path d="M306.753 131.755C306.999 130.869 306.56 129.961 306.753 129.06C306.945 128.159 307.523 127.789 307.846 127.058C308.439 125.656 307.661 124.548 306.568 123.654C302.264 120.151 296.18 119.858 291.337 117.163C290.638 116.723 289.901 116.347 289.135 116.039C288.749 115.89 288.336 115.823 287.922 115.841C287.509 115.86 287.104 115.964 286.733 116.147C286.417 116.354 286.146 116.622 285.936 116.935C285.726 117.249 285.58 117.601 285.508 117.972C285.41 118.717 285.376 119.469 285.408 120.22C284.7 120.22 284.068 119.735 283.345 119.666C282.569 119.579 281.784 119.713 281.081 120.051C280.607 120.248 280.218 120.605 279.98 121.059C279.836 121.421 279.776 121.811 279.803 122.199C279.842 123.446 280.178 124.667 280.783 125.758C281.389 126.849 282.246 127.781 283.283 128.475C284.007 128.936 284.783 129.314 285.593 129.599C286.952 130.145 288.402 130.428 289.867 130.43C291.343 130.426 292.766 129.878 293.863 128.89C294.518 130.254 295.599 131.367 296.943 132.063C297.623 132.397 298.373 132.566 299.13 132.554C299.888 132.541 300.632 132.349 301.301 131.993C301.386 134.042 301.632 136.074 301.755 138.153C301.717 138.817 301.935 139.47 302.364 139.978C303.557 141.087 304.589 138.615 305.313 138.053C305.736 137.722 305.775 136.891 305.829 136.413C305.882 135.936 305.929 135.42 305.944 134.927C305.889 134.609 305.863 134.287 305.867 133.965C306.098 133.148 306.552 132.486 306.753 131.755Z" fill="#263238"/>
<path d="M307.792 127.951L311.642 126.234C311.543 125.975 311.391 125.738 311.198 125.539C311.005 125.34 310.773 125.182 310.517 125.074C310.26 124.967 309.985 124.913 309.708 124.915C309.43 124.917 309.155 124.975 308.901 125.087C308.385 125.331 307.982 125.765 307.776 126.298C307.57 126.831 307.575 127.422 307.792 127.951Z" fill="#263238"/>
<path d="M290.621 151.482C290.621 151.482 296.227 150.789 298.236 149.942C299.414 149.438 300.413 148.59 301.101 147.509C300.724 148.616 300.127 149.634 299.345 150.504C297.805 152.206 290.506 152.984 290.506 152.984L290.621 151.482Z" fill="#F28F8F"/>
<path d="M291.984 137.214C291.977 137.431 292.034 137.645 292.148 137.83C292.262 138.015 292.427 138.163 292.624 138.254C292.821 138.346 293.041 138.378 293.255 138.346C293.47 138.314 293.671 138.22 293.833 138.075C293.994 137.93 294.11 137.74 294.165 137.53C294.22 137.32 294.212 137.099 294.142 136.893C294.072 136.687 293.944 136.507 293.772 136.374C293.601 136.24 293.394 136.16 293.177 136.144C293.029 136.135 292.88 136.157 292.739 136.206C292.599 136.255 292.469 136.332 292.359 136.431C292.248 136.531 292.158 136.651 292.093 136.785C292.029 136.92 291.992 137.065 291.984 137.214Z" fill="#263238"/>
<path d="M293.478 133.125L295.742 134.611C295.936 134.3 296.002 133.926 295.926 133.567C295.85 133.207 295.638 132.892 295.333 132.686C295.184 132.589 295.016 132.523 294.841 132.492C294.665 132.462 294.485 132.467 294.312 132.508C294.138 132.549 293.975 132.625 293.831 132.731C293.688 132.837 293.568 132.971 293.478 133.125Z" fill="#263238"/>
<path d="M292.053 144.452L288.896 145.368C288.948 145.579 289.042 145.778 289.172 145.952C289.302 146.126 289.465 146.272 289.652 146.382C289.84 146.492 290.047 146.563 290.262 146.591C290.478 146.619 290.697 146.604 290.906 146.546C291.33 146.413 291.687 146.12 291.901 145.73C292.115 145.34 292.169 144.882 292.053 144.452Z" fill="#F28F8F"/>
<path d="M282.69 133.21L285 131.716C284.91 131.562 284.79 131.428 284.646 131.322C284.503 131.216 284.339 131.141 284.165 131.1C283.992 131.06 283.811 131.055 283.636 131.087C283.46 131.119 283.293 131.186 283.144 131.285C282.836 131.486 282.616 131.798 282.532 132.157C282.447 132.515 282.504 132.892 282.69 133.21Z" fill="#263238"/>
<path d="M283.129 136.221C283.122 136.438 283.179 136.652 283.293 136.837C283.407 137.022 283.572 137.169 283.769 137.261C283.966 137.353 284.186 137.385 284.4 137.353C284.615 137.321 284.816 137.226 284.978 137.081C285.139 136.936 285.255 136.747 285.31 136.537C285.365 136.327 285.357 136.105 285.287 135.9C285.218 135.694 285.089 135.513 284.917 135.38C284.746 135.247 284.539 135.167 284.322 135.15C284.174 135.142 284.025 135.163 283.884 135.213C283.744 135.262 283.614 135.338 283.504 135.438C283.393 135.537 283.303 135.658 283.238 135.792C283.174 135.926 283.137 136.072 283.129 136.221Z" fill="#263238"/>
<path d="M288.357 135.597L287.479 142.227L284.099 140.771L288.357 135.597Z" fill="#F28F8F"/>
<path d="M320.32 165.019C318.182 169.455 315.575 173.65 312.543 177.531C311.965 178.301 311.365 179.002 310.757 179.71C306.853 172.78 305.906 161.23 308.015 157.796L310.194 158.127C312.306 158.397 314.323 159.162 316.083 160.36C317.842 161.558 319.294 163.154 320.32 165.019Z" fill="#F1C40F"/>
<g opacity="0.25">
<path d="M320.32 165.019C318.182 169.455 315.575 173.65 312.543 177.531C311.965 178.301 311.365 179.002 310.757 179.71C306.853 172.78 305.906 161.23 308.015 157.796L310.194 158.127C312.306 158.397 314.323 159.162 316.083 160.36C317.842 161.558 319.294 163.154 320.32 165.019Z" fill="#100F32"/>
</g>
<path d="M125.81 192.177L123.092 190.637C122.801 190.447 122.558 190.191 122.384 189.89C122.21 189.589 122.11 189.251 122.091 188.904V118.957C122.109 118.61 122.21 118.272 122.384 117.971C122.558 117.67 122.8 117.414 123.092 117.225L261.838 37.1448C262.149 36.989 262.492 36.9079 262.84 36.9079C263.187 36.9079 263.53 36.989 263.84 37.1448L266.559 38.6848C266.85 38.8745 267.092 39.1302 267.266 39.4313C267.44 39.7323 267.541 40.0702 267.56 40.4173V110.341C267.541 110.688 267.441 111.026 267.267 111.328C267.093 111.629 266.85 111.884 266.559 112.074L127.82 192.177C127.509 192.337 127.165 192.421 126.815 192.421C126.465 192.421 126.121 192.337 125.81 192.177Z" fill="#F1C40F"/>
<path opacity="0.4" d="M267.521 40.117C267.39 39.7012 267.005 39.5703 266.559 39.8398L127.82 119.943C127.524 120.137 127.28 120.401 127.112 120.713L122.391 117.995C122.558 117.682 122.802 117.417 123.1 117.225L261.854 37.1448C262.165 36.989 262.507 36.9079 262.855 36.9079C263.202 36.9079 263.545 36.989 263.856 37.1448L266.566 38.6848C266.813 38.8472 267.025 39.0577 267.189 39.3038C267.353 39.5498 267.466 39.8264 267.521 40.117Z" fill="white"/>
<path d="M127.82 119.951L266.566 39.8706C267.121 39.5549 267.567 39.809 267.567 40.4481V110.341C267.549 110.688 267.449 111.026 267.275 111.327C267.101 111.629 266.858 111.884 266.566 112.073L127.82 192.177C127.266 192.5 126.819 192.238 126.819 191.599V121.66C126.841 121.317 126.943 120.983 127.116 120.686C127.29 120.39 127.531 120.138 127.82 119.951Z" fill="#F1C40F"/>
<path opacity="0.15" d="M127.574 192.284C127.288 192.39 126.984 192.434 126.681 192.416C126.377 192.397 126.081 192.316 125.81 192.177L123.1 190.637C122.809 190.446 122.568 190.19 122.394 189.889C122.22 189.588 122.119 189.251 122.099 188.904V118.957C122.107 118.61 122.205 118.27 122.384 117.972L127.104 120.69C126.921 120.987 126.817 121.327 126.804 121.675V191.599C126.804 192.146 127.135 192.415 127.574 192.284Z" fill="#100F32"/>
<path d="M129.938 190.96V198.09C129.937 198.338 130.015 198.579 130.161 198.778C130.308 198.977 130.514 199.125 130.75 199.198C130.987 199.271 131.24 199.267 131.474 199.185C131.707 199.104 131.908 198.949 132.047 198.745L142.45 183.73L129.938 190.96Z" fill="#F1C40F"/>
<path d="M197.297 112.335L204.997 107.885C205.913 107.353 206.66 107.731 206.66 108.732C206.619 109.29 206.447 109.832 206.158 110.312C205.869 110.792 205.471 111.198 204.997 111.496L197.297 115.947C196.373 116.478 195.626 116.101 195.626 115.107C195.667 114.546 195.839 114.003 196.13 113.521C196.42 113.04 196.82 112.633 197.297 112.335Z" fill="#FAFAFA"/>
<path d="M210.718 104.581L230.338 93.2547C231.262 92.7234 232.009 93.1007 232.009 94.094C231.968 94.6549 231.795 95.1984 231.505 95.6801C231.215 96.1617 230.815 96.5681 230.338 96.866L210.718 108.193C209.794 108.724 209.047 108.347 209.047 107.346C209.089 106.786 209.262 106.244 209.553 105.764C209.843 105.284 210.242 104.879 210.718 104.581Z" fill="#FAFAFA"/>
<path d="M235.235 90.4211L257.38 77.6468C258.297 77.1155 259.043 77.4928 259.043 78.4938C259.002 79.0526 258.83 79.5938 258.541 80.0739C258.252 80.554 257.854 80.9596 257.38 81.2581L235.235 94.0324C234.319 94.5637 233.572 94.1864 233.572 93.1931C233.612 92.633 233.784 92.0902 234.073 91.6087C234.362 91.1272 234.76 90.7203 235.235 90.4211Z" fill="#FAFAFA"/>
<path d="M197.289 90.6675L216.909 79.31C217.833 78.7787 218.572 79.156 218.572 80.157C218.532 80.7162 218.361 81.2581 218.072 81.7385C217.783 82.2189 217.384 82.6242 216.909 82.9213L197.289 94.248C196.365 94.7793 195.619 94.402 195.619 93.4087C195.664 92.8531 195.839 92.3158 196.129 91.8399C196.419 91.3639 196.816 90.9624 197.289 90.6675Z" fill="#FAFAFA"/>
<path d="M221.806 76.5149L239.947 66.0352C240.871 65.5039 241.618 65.8812 241.618 66.8822C241.576 67.4418 241.403 67.9837 241.113 68.464C240.823 68.9442 240.423 69.3493 239.947 69.6465L221.806 80.1262C220.882 80.6575 220.135 80.2802 220.135 79.2792C220.178 78.7199 220.352 78.1785 220.642 77.6984C220.932 77.2183 221.331 76.813 221.806 76.5149Z" fill="#FAFAFA"/>
<path d="M244.952 63.14L257.904 55.6633C258.828 55.132 259.575 55.5093 259.575 56.5103C259.535 57.0726 259.363 57.6176 259.073 58.1007C258.782 58.5838 258.382 58.9913 257.904 59.29L244.952 66.7667C244.036 67.298 243.289 66.9207 243.289 65.9274C243.327 65.3646 243.498 64.8188 243.787 64.3344C244.076 63.85 244.475 63.4408 244.952 63.14Z" fill="#FAFAFA"/>
<path d="M197.289 123.2L216.909 111.873C217.833 111.342 218.572 111.719 218.572 112.713C218.533 113.273 218.362 113.816 218.073 114.298C217.784 114.78 217.385 115.186 216.909 115.485L197.289 126.811C196.365 127.343 195.619 126.965 195.619 125.964C195.66 125.405 195.833 124.863 196.124 124.383C196.414 123.902 196.813 123.497 197.289 123.2Z" fill="#FAFAFA"/>
<path d="M221.806 109.001L239.947 98.56C240.871 98.0287 241.618 98.406 241.618 99.3993C241.578 99.9603 241.405 100.504 241.115 100.985C240.824 101.467 240.424 101.873 239.947 102.171L221.806 112.643C220.882 113.175 220.135 112.797 220.135 111.804C220.172 111.238 220.343 110.689 220.634 110.202C220.924 109.714 221.326 109.303 221.806 109.001Z" fill="#FAFAFA"/>
<path d="M244.952 95.6263L257.904 88.1496C258.828 87.6183 259.575 87.9956 259.575 88.9889C259.534 89.5499 259.361 90.0933 259.071 90.575C258.781 91.0567 258.381 91.463 257.904 91.7609L244.952 99.2376C244.036 99.7689 243.289 99.3916 243.289 98.3906C243.331 97.8318 243.503 97.2906 243.792 96.8105C244.081 96.3304 244.478 95.9248 244.952 95.6263Z" fill="#FAFAFA"/>
<path d="M197.289 101.509L234.249 80.1493C235.166 79.618 235.913 79.9953 235.913 80.9963C235.871 81.5551 235.699 82.0963 235.41 82.5764C235.121 83.0565 234.724 83.4621 234.249 83.7606L197.289 105.12C196.365 105.652 195.619 105.274 195.619 104.273C195.66 103.714 195.833 103.172 196.124 102.692C196.414 102.211 196.813 101.806 197.289 101.509Z" fill="#FAFAFA"/>
<path d="M239.647 77.0462L257.357 66.836C258.281 66.3047 259.028 66.682 259.028 67.6753C258.987 68.2363 258.815 68.7797 258.524 69.2614C258.234 69.7431 257.834 70.1494 257.357 70.4473L239.647 80.6575C238.723 81.1888 237.976 80.8115 237.984 79.8105C238.025 79.2517 238.198 78.7105 238.487 78.2304C238.775 77.7503 239.173 77.3447 239.647 77.0462Z" fill="#FAFAFA"/>
<path d="M251.213 104.004C251.071 103.942 250.919 103.909 250.764 103.906C250.61 103.903 250.457 103.932 250.313 103.989C250.17 104.046 250.039 104.132 249.929 104.24C249.819 104.348 249.732 104.477 249.673 104.62L245.314 114.999L244.306 113.96C244.084 113.758 243.792 113.65 243.493 113.659C243.193 113.668 242.909 113.794 242.7 114.009C242.491 114.224 242.373 114.512 242.373 114.811C242.372 115.111 242.488 115.4 242.696 115.615L244.952 117.802C245.157 118.008 245.433 118.126 245.722 118.133C245.799 118.141 245.877 118.141 245.953 118.133C246.138 118.097 246.31 118.015 246.455 117.895C246.6 117.776 246.714 117.622 246.785 117.448L251.828 105.49C251.937 105.211 251.934 104.9 251.819 104.623C251.704 104.346 251.487 104.124 251.213 104.004Z" fill="#455A64"/>
<path d="M260.984 98.329C260.843 98.2658 260.69 98.2317 260.535 98.2286C260.381 98.2255 260.227 98.2536 260.083 98.311C259.94 98.3685 259.809 98.4542 259.699 98.5631C259.589 98.672 259.503 98.8019 259.444 98.945L255.109 109.34L254.1 108.308C253.878 108.106 253.587 107.998 253.287 108.008C252.987 108.017 252.703 108.142 252.494 108.357C252.285 108.572 252.168 108.86 252.167 109.16C252.167 109.46 252.283 109.748 252.491 109.964L254.739 112.15C254.845 112.256 254.971 112.34 255.11 112.397C255.249 112.454 255.398 112.483 255.548 112.482H255.771C255.955 112.442 256.127 112.36 256.273 112.24C256.419 112.121 256.535 111.969 256.61 111.796L261.623 99.8613C261.684 99.719 261.716 99.5659 261.717 99.411C261.718 99.2561 261.688 99.1026 261.628 98.9597C261.569 98.8167 261.481 98.6872 261.37 98.5789C261.259 98.4705 261.128 98.3855 260.984 98.329Z" fill="#455A64"/>
<path d="M161.13 104.451C145.622 113.413 133.048 135.181 133.056 153.091C133.064 171.002 145.63 178.263 161.138 169.308C176.646 160.353 189.228 138.569 189.212 120.667C189.197 102.764 176.623 95.48 161.13 104.451Z" fill="#455A64"/>
<path d="M172.865 147.07C167.629 146.854 153.723 145.083 153.723 145.083C149.578 142.383 146.23 138.623 144.029 134.193C141.827 129.762 140.851 124.824 141.203 119.889L141.511 115.562C141.771 111.571 143.384 107.789 146.083 104.838C148.781 101.888 152.405 99.9448 156.356 99.33C158.743 98.9686 161.181 99.1485 163.49 99.8563C165.798 100.564 167.918 101.782 169.692 103.419C171.467 105.057 172.85 107.072 173.741 109.317C174.631 111.561 175.005 113.977 174.836 116.385C174.682 118.511 174.913 120.451 176.376 122.114C177.217 122.951 178.149 123.689 179.156 124.316C180.585 125.245 181.831 126.43 182.829 127.812C183.323 128.508 183.669 129.297 183.845 130.131C184.021 130.966 184.024 131.828 183.853 132.663C183.557 133.726 182.964 134.683 182.144 135.42C181.995 135.523 181.893 135.681 181.859 135.859C181.864 135.988 181.904 136.113 181.974 136.221C183.222 138.484 183.591 141.403 182.259 143.62C181.351 145.003 179.99 146.027 178.409 146.516C176.847 146.994 175.214 147.203 173.581 147.132C173.396 147.07 173.127 147.07 172.865 147.07Z" fill="#263238"/>
<path d="M148.341 147.209C147.951 150.107 146.439 152.737 144.129 154.531C143.369 155.128 142.522 155.606 141.618 155.948L137.668 168.199C134.758 164.772 133.048 159.636 133.048 153.076C133.069 150.438 133.327 147.806 133.818 145.214C135.843 140.194 138.438 138.099 144.09 137.514C144.367 137.684 149.295 141.033 148.341 147.209Z" fill="#FFA8A7"/>
<path d="M208.67 146.647C205.338 152.452 201.712 158.082 197.805 163.517C196.835 164.811 194.125 168.384 192.708 168.73C190.906 169.177 189.374 167.752 188.411 167.09C185.147 164.826 168.253 148.033 168.253 148.033C162.994 140.702 164.318 136.028 165.034 136.02C165.75 136.013 171.14 134.604 175.753 139.1C179.248 142.512 191.191 154.855 191.191 154.855C194.009 151.544 195.857 149.904 198.668 146.585C200.038 144.968 202.125 143.228 202.217 141.002C202.208 139.986 202.118 138.971 201.948 137.969C201.778 135.649 201.926 133.318 202.387 131.039C202.396 130.935 202.422 130.834 202.464 130.738C202.539 130.611 202.656 130.513 202.795 130.461C203.054 130.386 203.33 130.399 203.581 130.497C203.832 130.596 204.043 130.776 204.181 131.008C204.445 131.479 204.591 132.008 204.604 132.548C204.618 133.078 204.733 133.601 204.943 134.088C204.988 134.188 205.056 134.275 205.143 134.342C205.241 134.407 205.357 134.439 205.475 134.434C206.114 134.434 206.46 133.741 206.691 133.233C207.248 132.044 207.696 130.807 208.031 129.537C208.262 128.667 208.662 127.828 208.963 126.965C209.08 126.454 209.348 125.99 209.733 125.633C210.426 125.117 211.411 125.402 212.189 125.795C212.618 126.008 213.023 126.266 213.398 126.565C214.505 127.576 215.236 128.934 215.469 130.415C215.781 132.129 215.664 133.893 215.13 135.551C214.47 137.884 213.372 140.071 211.896 141.996C210.849 143.551 209.656 145.022 208.67 146.647Z" fill="#FFA8A7"/>
<path d="M171.086 157.534L170.894 161.654C167.996 164.627 164.715 167.201 161.138 169.308C157.962 171.233 154.428 172.493 150.751 173.011C148.164 173.361 145.531 173.062 143.089 172.141L143.667 170.324L141.603 155.964C141.912 155.67 142.186 155.342 142.419 154.986C142.535 154.824 142.65 154.647 142.781 154.439C142.93 154.208 143.067 153.969 143.189 153.723C143.282 153.553 143.366 153.376 143.459 153.184C143.551 152.991 143.636 152.799 143.728 152.591L143.882 152.244C143.975 152.013 144.067 151.759 144.159 151.474C144.19 151.402 144.215 151.327 144.236 151.251C144.672 149.936 144.982 148.582 145.16 147.209C145.93 141.503 144.514 138.084 144.059 137.499C144.298 137.422 149.549 137.129 149.549 137.129L160.075 135.897L165.119 136.09C168.96 138.463 171.931 142.015 173.589 146.215C176.276 152.83 171.086 157.534 171.086 157.534Z" fill="#FAFAFA"/>
<path opacity="0.1" d="M150.751 173.011C148.164 173.361 145.531 173.062 143.089 172.141L143.667 170.324L141.603 155.964C141.912 155.67 142.186 155.342 142.419 154.986C142.535 154.824 142.65 154.647 142.781 154.439C142.93 154.208 143.067 153.969 143.189 153.723C143.282 153.553 143.366 153.376 143.459 153.184C143.551 152.991 143.636 152.799 143.728 152.591L143.882 152.244C143.975 152.013 144.067 151.759 144.159 151.474C144.19 151.402 144.215 151.327 144.236 151.251C144.19 152.021 144.129 153.222 144.113 154.524C144.091 155.994 144.158 157.465 144.313 158.928C144.775 162.686 148.803 170.878 150.381 172.18C150.517 172.267 150.625 172.392 150.691 172.54C150.757 172.688 150.777 172.852 150.751 173.011Z" fill="#100F32"/>
<path d="M170.555 108.84C171.548 110.025 172.78 113.036 171.764 122.622C170.902 130.746 168.099 132.54 166.728 133.01C165.358 133.479 162.832 132.91 160.383 132.294L160.052 136.259C162.402 138.1 164.415 140.332 166.004 142.858C167.883 146.092 158.905 146.708 153.607 141.711C150.774 139.039 148.987 137.152 148.987 137.152L150.027 125.402C150.027 125.402 148.487 126.703 146.177 124.332C144.283 122.376 143.867 119.304 145.569 117.81C146.014 117.459 146.536 117.22 147.092 117.11C147.648 117.001 148.222 117.026 148.766 117.182C149.311 117.339 149.81 117.623 150.224 118.01C150.637 118.398 150.952 118.878 151.143 119.412C151.143 119.412 155.093 119.889 160.607 117.425C166.12 114.961 169.939 111.966 170.555 108.84Z" fill="#FFA8A7"/>
<path d="M163.24 120.035C163.246 120.177 163.222 120.319 163.17 120.452C163.119 120.584 163.04 120.705 162.94 120.806C162.839 120.906 162.719 120.985 162.587 121.037C162.454 121.089 162.313 121.113 162.17 121.108C162.028 121.103 161.889 121.068 161.761 121.006C161.632 120.944 161.519 120.857 161.426 120.749C161.333 120.641 161.264 120.515 161.222 120.379C161.181 120.243 161.168 120.1 161.184 119.958C161.178 119.816 161.202 119.674 161.254 119.542C161.305 119.409 161.384 119.289 161.484 119.188C161.585 119.087 161.705 119.008 161.837 118.956C161.97 118.904 162.112 118.88 162.254 118.885C162.396 118.891 162.535 118.925 162.663 118.987C162.792 119.049 162.906 119.137 162.998 119.245C163.091 119.353 163.16 119.479 163.202 119.615C163.243 119.751 163.256 119.894 163.24 120.035Z" fill="#263238"/>
<path d="M162.085 126.48L164.726 127.566C164.663 127.744 164.564 127.907 164.437 128.045C164.309 128.184 164.155 128.296 163.983 128.373C163.811 128.451 163.625 128.493 163.437 128.497C163.248 128.501 163.061 128.467 162.886 128.397C162.537 128.236 162.262 127.949 162.113 127.594C161.965 127.239 161.955 126.842 162.085 126.48Z" fill="#F28F8F"/>
<path d="M171.648 117.972L169.4 116.84C169.466 116.689 169.562 116.553 169.682 116.441C169.803 116.328 169.945 116.242 170.1 116.186C170.255 116.131 170.42 116.108 170.584 116.118C170.748 116.128 170.909 116.172 171.056 116.247C171.357 116.404 171.586 116.67 171.696 116.991C171.806 117.312 171.789 117.663 171.648 117.972Z" fill="#263238"/>
<path d="M170.555 120.405C170.54 120.605 170.466 120.796 170.344 120.954C170.221 121.113 170.055 121.232 169.865 121.297C169.675 121.361 169.471 121.369 169.277 121.319C169.083 121.268 168.908 121.162 168.773 121.013C168.639 120.865 168.552 120.68 168.521 120.482C168.491 120.283 168.52 120.081 168.604 119.899C168.688 119.717 168.823 119.563 168.994 119.458C169.164 119.352 169.361 119.298 169.562 119.304C169.699 119.311 169.834 119.345 169.959 119.404C170.083 119.463 170.195 119.546 170.287 119.648C170.379 119.751 170.45 119.87 170.496 120C170.542 120.13 170.562 120.267 170.555 120.405Z" fill="#263238"/>
<path d="M166.443 118.934L165.835 125.595L169.161 124.863L166.443 118.934Z" fill="#F28F8F"/>
<path d="M160.383 132.294C157.788 131.732 152.537 129.737 151.913 127.543C152.16 128.648 152.741 129.651 153.577 130.415C155.07 131.955 160.283 133.918 160.283 133.918L160.383 132.294Z" fill="#F28F8F"/>
<path d="M150.543 122.361C151.088 122.361 151.611 122.144 151.996 121.759C152.382 121.373 152.599 120.85 152.599 120.305C152.599 119.76 152.382 119.237 151.996 118.851C151.611 118.466 151.088 118.249 150.543 118.249V122.361Z" fill="#263238"/>
<path d="M278.94 255.548L311.511 234.688L325.856 239.293L278.94 255.548Z" fill="#F1C40F"/>
<path d="M278.94 255.548L307.091 232.07L300.831 224.848L278.94 255.548Z" fill="#F1C40F"/>
<path d="M307.091 232.07V237.522L278.94 255.548L307.091 232.07Z" fill="#F1C40F"/>
<path opacity="0.3" d="M307.091 232.07V237.522L278.94 255.548L307.091 232.07Z" fill="#100F32"/>
<path d="M347.362 88.9966L323.338 73.612L312.759 77.0077L347.362 88.9966Z" fill="#F1C40F"/>
<path d="M347.362 88.9966L326.595 71.6793L331.215 66.3509L347.362 88.9966Z" fill="#F1C40F"/>
<path d="M326.595 71.6793V75.6987L347.362 88.9966L326.595 71.6793Z" fill="#F1C40F"/>
<path opacity="0.3" d="M326.595 71.6793V75.6987L347.362 88.9966L326.595 71.6793Z" fill="#100F32"/>
<path d="M322.345 70.5166C322.178 70.5166 322.016 70.4626 321.883 70.3626C321.583 70.1316 321.275 69.9083 320.967 69.685C320.884 69.6261 320.814 69.5514 320.76 69.4652C320.707 69.379 320.67 69.2831 320.654 69.1829C320.637 69.0827 320.641 68.9802 320.664 68.8814C320.688 68.7826 320.73 68.6893 320.79 68.607C320.849 68.525 320.924 68.4554 321.011 68.4025C321.097 68.3495 321.193 68.3141 321.294 68.2984C321.394 68.2827 321.496 68.2869 321.594 68.3108C321.693 68.3346 321.786 68.3778 321.868 68.4376C322.183 68.6609 322.499 68.8919 322.807 69.1306C322.936 69.2276 323.032 69.3628 323.08 69.517C323.128 69.6713 323.127 69.8368 323.076 69.9901C323.024 70.1434 322.926 70.2768 322.795 70.3713C322.664 70.4658 322.507 70.5166 322.345 70.5166Z" fill="#E0E0E0"/>
<path d="M318.01 67.5444C317.866 67.5449 317.724 67.5049 317.602 67.4289C316.919 66.9977 316.226 66.5819 315.523 66.1815C315.345 66.0794 315.215 65.9109 315.162 65.7131C315.109 65.5152 315.136 65.3043 315.238 65.1266C315.34 64.949 315.509 64.8191 315.706 64.7657C315.904 64.7123 316.115 64.7396 316.293 64.8417C317.017 65.2575 317.725 65.681 318.426 66.1199C318.568 66.2082 318.678 66.3407 318.738 66.4971C318.799 66.6535 318.807 66.8253 318.76 66.9865C318.714 67.1477 318.617 67.2894 318.483 67.3901C318.349 67.4908 318.185 67.545 318.018 67.5444H318.01ZM312.289 64.3874C312.174 64.3884 312.06 64.362 311.958 64.3104C311.234 63.9639 310.487 63.6251 309.756 63.3171C309.659 63.2804 309.57 63.2245 309.495 63.1528C309.421 63.081 309.361 62.9949 309.32 62.8996C309.28 62.8043 309.259 62.7018 309.258 62.5982C309.258 62.4946 309.279 62.392 309.32 62.2966C309.36 62.2012 309.419 62.1149 309.494 62.0429C309.568 61.971 309.657 61.9148 309.754 61.8778C309.85 61.8408 309.954 61.8238 310.057 61.8276C310.161 61.8315 310.262 61.8562 310.356 61.9003C311.126 62.2237 311.896 62.5625 312.62 62.9244C312.777 63.0002 312.903 63.1268 312.978 63.2835C313.054 63.4402 313.074 63.6178 313.035 63.7874C312.997 63.957 312.902 64.1086 312.767 64.2176C312.631 64.3265 312.463 64.3864 312.289 64.3874ZM306.237 61.9311C306.153 61.9296 306.07 61.9166 305.99 61.8926C305.22 61.6385 304.45 61.3998 303.68 61.1842C303.575 61.1652 303.475 61.1244 303.386 61.0646C303.298 61.0047 303.222 60.927 303.165 60.8364C303.108 60.7458 303.071 60.6444 303.055 60.5385C303.04 60.4327 303.047 60.3247 303.075 60.2216C303.103 60.1185 303.153 60.0224 303.221 59.9395C303.288 59.8567 303.373 59.7888 303.468 59.7403C303.563 59.6917 303.668 59.6636 303.775 59.6577C303.881 59.6518 303.988 59.6681 304.088 59.7058C304.858 59.9214 305.682 60.1678 306.468 60.4296C306.565 60.461 306.654 60.5113 306.732 60.5775C306.809 60.6438 306.872 60.7248 306.918 60.8157C306.964 60.9067 306.991 61.0058 306.999 61.1074C307.006 61.209 306.993 61.311 306.96 61.4075C306.911 61.5556 306.817 61.685 306.692 61.7785C306.567 61.872 306.416 61.9252 306.26 61.9311H306.237ZM278.155 61.7771C277.992 61.777 277.834 61.7256 277.703 61.6301C277.571 61.5347 277.474 61.4002 277.423 61.2458C277.36 61.0528 277.375 60.8425 277.466 60.6608C277.557 60.4791 277.716 60.3406 277.908 60.2756C278.678 60.0061 279.495 59.7674 280.288 59.5056C280.385 59.4788 280.487 59.4714 280.588 59.4839C280.688 59.4965 280.785 59.5287 280.873 59.5788C280.961 59.6288 281.038 59.6957 281.1 59.7757C281.162 59.8556 281.208 59.947 281.235 60.0446C281.262 60.1422 281.269 60.2441 281.256 60.3446C281.244 60.445 281.212 60.542 281.162 60.6299C281.112 60.7179 281.045 60.7951 280.965 60.8572C280.885 60.9193 280.793 60.965 280.696 60.9917C279.926 61.2073 279.156 61.4383 278.386 61.6924C278.322 61.7324 278.252 61.7611 278.178 61.7771H278.155ZM299.915 60.291H299.769C298.999 60.1447 298.182 60.0138 297.397 59.9137C297.296 59.9006 297.198 59.8676 297.11 59.8168C297.022 59.766 296.944 59.6982 296.882 59.6174C296.82 59.5366 296.774 59.4444 296.748 59.3459C296.721 59.2475 296.714 59.1447 296.727 59.0436C296.74 58.9425 296.773 58.845 296.824 58.7566C296.875 58.6682 296.943 58.5907 297.023 58.5285C297.104 58.4663 297.197 58.4206 297.295 58.394C297.393 58.3675 297.496 58.3606 297.597 58.3737C298.413 58.4815 299.237 58.6124 300.054 58.7664C300.258 58.7848 300.446 58.8836 300.578 59.041C300.709 59.1984 300.773 59.4015 300.754 59.6057C300.736 59.8099 300.637 59.9985 300.48 60.1299C300.322 60.2613 300.119 60.3248 299.915 60.3064V60.291ZM284.515 60.1678C284.414 60.1764 284.312 60.165 284.215 60.1343C284.119 60.1035 284.029 60.054 283.951 59.9886C283.874 59.9232 283.81 59.8431 283.763 59.753C283.717 59.6628 283.688 59.5644 283.68 59.4633C283.671 59.3622 283.682 59.2603 283.713 59.1636C283.744 59.0669 283.793 58.9772 283.859 58.8996C283.924 58.8221 284.004 58.7581 284.094 58.7115C284.185 58.6648 284.283 58.6364 284.384 58.6278C285.2 58.4892 286.032 58.366 286.856 58.2736C287.06 58.2501 287.265 58.3087 287.426 58.4365C287.587 58.5643 287.691 58.7509 287.714 58.9551C287.738 59.1593 287.679 59.3645 287.551 59.5255C287.424 59.6865 287.237 59.7901 287.033 59.8136C286.263 59.906 285.439 60.0215 284.646 60.1601L284.515 60.1678ZM293.462 59.5595C292.692 59.5595 291.853 59.5595 291.052 59.5595C290.848 59.5595 290.652 59.4784 290.508 59.334C290.363 59.1896 290.282 58.9937 290.282 58.7895C290.282 58.5853 290.363 58.3895 290.508 58.2451C290.652 58.1006 290.848 58.0195 291.052 58.0195C291.892 58.0195 292.715 58.0195 293.547 58.0195C293.751 58.0195 293.947 58.1006 294.092 58.2451C294.236 58.3895 294.317 58.5853 294.317 58.7895C294.317 58.9937 294.236 59.1896 294.092 59.334C293.947 59.4784 293.751 59.5595 293.547 59.5595H293.462Z" fill="#E0E0E0"/>
<path d="M273.304 63.7252C273.13 63.7242 272.961 63.6644 272.826 63.5554C272.69 63.4465 272.596 63.2948 272.557 63.1252C272.519 62.9556 272.539 62.778 272.615 62.6213C272.69 62.4646 272.816 62.338 272.973 62.2622L274.043 61.7771C274.136 61.7362 274.235 61.7138 274.336 61.7114C274.438 61.709 274.538 61.7265 274.633 61.763C274.727 61.7994 274.813 61.8541 274.886 61.924C274.96 61.9938 275.018 62.0773 275.059 62.1698C275.1 62.2624 275.123 62.362 275.125 62.4632C275.128 62.5643 275.11 62.665 275.074 62.7594C275.037 62.8537 274.982 62.94 274.913 63.0133C274.843 63.0865 274.759 63.1453 274.667 63.1862C274.32 63.3325 273.974 63.4942 273.627 63.6559C273.526 63.7022 273.415 63.7258 273.304 63.7252Z" fill="#E0E0E0"/>
<path d="M316.601 229.198C316.439 229.197 316.281 229.145 316.15 229.049C316.019 228.953 315.922 228.818 315.873 228.663C315.823 228.509 315.824 228.342 315.874 228.188C315.925 228.034 316.023 227.9 316.154 227.804L317.094 227.135C317.176 227.074 317.269 227.031 317.367 227.007C317.466 226.982 317.568 226.978 317.669 226.993C317.769 227.009 317.866 227.044 317.953 227.096C318.04 227.149 318.115 227.218 318.176 227.3C318.236 227.382 318.279 227.475 318.303 227.574C318.328 227.672 318.332 227.775 318.317 227.875C318.301 227.976 318.266 228.072 318.214 228.159C318.161 228.246 318.092 228.322 318.01 228.382L317.071 229.06C316.933 229.156 316.768 229.204 316.601 229.198Z" fill="#E0E0E0"/>
<path d="M320.636 226.257C320.516 226.257 320.398 226.229 320.291 226.176C320.184 226.122 320.091 226.044 320.02 225.949C319.897 225.785 319.845 225.58 319.873 225.378C319.902 225.176 320.01 224.993 320.174 224.871L321.999 223.485C322.161 223.375 322.359 223.331 322.552 223.362C322.746 223.393 322.92 223.496 323.04 223.652C323.16 223.807 323.216 224.002 323.197 224.197C323.178 224.392 323.085 224.572 322.938 224.701C322.33 225.171 321.721 225.641 321.098 226.103C320.964 226.203 320.802 226.257 320.636 226.257ZM325.479 222.476C325.321 222.475 325.167 222.425 325.039 222.334C324.91 222.242 324.813 222.113 324.76 221.964C324.707 221.816 324.701 221.654 324.743 221.502C324.785 221.35 324.872 221.214 324.994 221.113L326.757 219.65C326.833 219.575 326.923 219.517 327.022 219.478C327.121 219.44 327.227 219.422 327.333 219.426C327.439 219.431 327.543 219.457 327.639 219.504C327.734 219.55 327.819 219.616 327.888 219.697C327.957 219.778 328.008 219.873 328.038 219.975C328.069 220.077 328.078 220.184 328.065 220.289C328.052 220.395 328.018 220.496 327.963 220.588C327.909 220.679 327.837 220.759 327.751 220.821C327.165 221.321 326.565 221.814 325.964 222.307C325.827 222.417 325.655 222.477 325.479 222.476ZM330.145 218.48C329.989 218.481 329.837 218.435 329.708 218.347C329.579 218.26 329.479 218.135 329.422 217.99C329.366 217.845 329.354 217.686 329.39 217.534C329.425 217.382 329.506 217.245 329.622 217.14C330.191 216.624 330.754 216.108 331.3 215.6C331.372 215.528 331.457 215.471 331.551 215.431C331.645 215.392 331.745 215.372 331.847 215.372C331.949 215.372 332.049 215.392 332.143 215.431C332.237 215.471 332.322 215.528 332.394 215.6C332.537 215.744 332.618 215.939 332.618 216.143C332.618 216.346 332.537 216.541 332.394 216.686C331.832 217.217 331.269 217.741 330.692 218.264C330.545 218.406 330.349 218.483 330.145 218.48ZM334.565 214.214C334.364 214.215 334.171 214.138 334.026 213.998C333.883 213.854 333.802 213.659 333.802 213.456C333.802 213.252 333.883 213.057 334.026 212.913C334.557 212.358 335.081 211.804 335.566 211.25C335.707 211.114 335.895 211.038 336.09 211.036C336.286 211.034 336.475 211.106 336.619 211.239C336.763 211.371 336.852 211.553 336.866 211.748C336.881 211.943 336.821 212.137 336.698 212.289C336.182 212.859 335.651 213.421 335.112 213.983C335.04 214.056 334.955 214.114 334.862 214.153C334.768 214.193 334.667 214.214 334.565 214.214ZM338.654 209.64C338.474 209.641 338.299 209.578 338.161 209.463C338.082 209.399 338.017 209.32 337.969 209.231C337.921 209.141 337.892 209.044 337.882 208.943C337.872 208.842 337.882 208.74 337.911 208.643C337.94 208.546 337.989 208.456 338.053 208.377C338.538 207.785 339.008 207.192 339.462 206.591C339.589 206.439 339.77 206.341 339.967 206.319C340.164 206.297 340.362 206.351 340.52 206.471C340.678 206.591 340.783 206.768 340.814 206.964C340.845 207.159 340.8 207.36 340.687 207.523C340.225 208.139 339.739 208.747 339.247 209.355C339.175 209.444 339.085 209.515 338.982 209.564C338.88 209.614 338.767 209.639 338.654 209.64ZM342.288 204.689C342.15 204.689 342.014 204.652 341.896 204.581C341.777 204.51 341.68 204.409 341.613 204.288C341.547 204.167 341.515 204.03 341.52 203.892C341.525 203.754 341.567 203.62 341.641 203.503C342.057 202.872 342.458 202.225 342.843 201.578C342.887 201.48 342.951 201.392 343.032 201.321C343.112 201.249 343.207 201.195 343.309 201.162C343.412 201.129 343.52 201.118 343.627 201.13C343.735 201.142 343.838 201.176 343.931 201.23C344.024 201.284 344.105 201.357 344.168 201.444C344.231 201.532 344.275 201.631 344.298 201.737C344.32 201.842 344.32 201.951 344.297 202.056C344.275 202.162 344.23 202.261 344.167 202.348C343.774 203.018 343.358 203.688 342.935 204.335C342.865 204.443 342.77 204.533 342.657 204.594C342.544 204.656 342.417 204.689 342.288 204.689ZM345.314 199.353C345.2 199.35 345.087 199.323 344.983 199.276C344.891 199.232 344.809 199.171 344.741 199.095C344.673 199.02 344.621 198.931 344.587 198.836C344.554 198.74 344.539 198.638 344.545 198.536C344.551 198.435 344.577 198.336 344.621 198.244C344.952 197.559 345.26 196.866 345.545 196.181C345.584 196.087 345.641 196.002 345.713 195.931C345.785 195.859 345.87 195.802 345.963 195.764C346.057 195.725 346.157 195.705 346.259 195.706C346.36 195.706 346.46 195.726 346.554 195.765C346.647 195.804 346.732 195.861 346.804 195.932C346.875 196.004 346.932 196.089 346.971 196.183C347.009 196.277 347.029 196.377 347.029 196.478C347.029 196.58 347.009 196.68 346.97 196.774C346.677 197.482 346.354 198.198 346.007 198.914C345.945 199.045 345.847 199.156 345.724 199.234C345.601 199.311 345.459 199.353 345.314 199.353ZM347.547 193.64C347.473 193.65 347.398 193.65 347.324 193.64C347.131 193.579 346.969 193.445 346.874 193.266C346.779 193.088 346.758 192.879 346.816 192.685C347.031 191.961 347.232 191.23 347.401 190.506C347.448 190.307 347.572 190.134 347.746 190.027C347.92 189.919 348.13 189.885 348.329 189.932C348.528 189.979 348.7 190.103 348.808 190.277C348.915 190.451 348.949 190.661 348.902 190.86C348.725 191.63 348.517 192.4 348.286 193.17C348.226 193.314 348.122 193.436 347.99 193.52C347.858 193.604 347.704 193.646 347.547 193.64Z" fill="#E0E0E0"/>
<path d="M348.81 187.634H348.71C348.508 187.607 348.325 187.501 348.201 187.339C348.076 187.178 348.021 186.973 348.048 186.771C348.094 186.402 348.132 186.001 348.163 185.655C348.182 185.45 348.28 185.262 348.438 185.131C348.595 184.999 348.798 184.936 349.002 184.954C349.207 184.972 349.395 185.071 349.527 185.229C349.658 185.386 349.722 185.589 349.703 185.793C349.665 186.186 349.618 186.563 349.572 186.964C349.548 187.149 349.457 187.319 349.317 187.442C349.177 187.565 348.997 187.633 348.81 187.634Z" fill="#E0E0E0"/>
</svg>
