<svg width="24" height="24" viewBox="0 0 24 24" fill="none" xmlns="http://www.w3.org/2000/svg">
<path d="M16.9277 6.53477L4.56735 18.9256L3.81836 20.7388L5.63156 19.9898L18.0223 7.62942L16.9277 6.53477Z" stroke="#2626CF" stroke-width="1.99851" stroke-linecap="round" stroke-linejoin="round"/>
<path d="M19.4 4.06217L18.8643 4.59745L19.9594 5.69255L20.4951 5.15682C20.6357 5.01614 20.7146 4.82541 20.7146 4.62653C20.7146 4.42766 20.6357 4.23693 20.4951 4.09625L20.461 4.06217C20.3914 3.9925 20.3086 3.93723 20.2176 3.89952C20.1266 3.86182 20.029 3.84241 19.9305 3.84241C19.832 3.84241 19.7344 3.86182 19.6434 3.89952C19.5524 3.93723 19.4697 3.9925 19.4 4.06217Z" stroke="#2626CF" stroke-width="1.99851" stroke-linecap="round" stroke-linejoin="round"/>
</svg>
