<svg width="31" height="31" viewBox="0 0 31 31" fill="none" xmlns="http://www.w3.org/2000/svg">
<path d="M20.1404 3.91012C18.9621 2.63803 17.3165 1.9375 15.5001 1.9375C13.674 1.9375 12.0229 2.63379 10.8501 3.89801C9.66455 5.17615 9.08693 6.91324 9.22256 8.78898C9.49139 12.4896 12.3074 15.5 15.5001 15.5C18.6927 15.5 21.5039 12.4902 21.777 8.79019C21.9144 6.93141 21.3331 5.19795 20.1404 3.91012Z" fill="#100F32"/>
<path d="M26.1564 29.0625H4.84385C4.56489 29.0661 4.28863 29.0075 4.03517 28.891C3.7817 28.7744 3.55741 28.6028 3.37862 28.3886C2.98506 27.9182 2.82643 27.2758 2.94389 26.6261C3.45491 23.7913 5.04971 21.41 7.55635 19.7383C9.78327 18.2543 12.6041 17.4375 15.5001 17.4375C18.3961 17.4375 21.2169 18.2549 23.4439 19.7383C25.9505 21.4094 27.5453 23.7907 28.0563 26.6255C28.1738 27.2752 28.0151 27.9176 27.6216 28.388C27.4428 28.6023 27.2186 28.774 26.9651 28.8907C26.7117 29.0074 26.4354 29.0661 26.1564 29.0625Z" fill="#100F32"/>
</svg>
