<svg width="36" height="36" viewBox="0 0 36 36" fill="none" xmlns="http://www.w3.org/2000/svg">
<path d="M18 21.375C19.864 21.375 21.375 19.864 21.375 18C21.375 16.136 19.864 14.625 18 14.625C16.136 14.625 14.625 16.136 14.625 18C14.625 19.864 16.136 21.375 18 21.375Z" fill="#100F32"/>
<path d="M33.0743 21.0938L33.0413 21.067L30.8222 19.3268C30.6817 19.2156 30.5695 19.0727 30.495 18.9098C30.4204 18.7468 30.3856 18.5685 30.3933 18.3895V17.5767C30.3863 17.3988 30.4215 17.2218 30.4962 17.0602C30.5709 16.8986 30.6829 16.7571 30.8229 16.6472L33.0413 14.9062L33.0743 14.8795C33.4165 14.5945 33.646 14.1971 33.722 13.7584C33.798 13.3196 33.7155 12.8682 33.4892 12.4847L30.4861 7.28859C30.4827 7.28369 30.4796 7.27852 30.477 7.27313C30.2494 6.89496 29.8966 6.60843 29.4798 6.46329C29.063 6.31815 28.6086 6.32356 28.1953 6.47859L28.1707 6.48773L25.5621 7.5375C25.3975 7.60407 25.2194 7.63056 25.0425 7.61479C24.8656 7.59902 24.695 7.54144 24.5447 7.4468C24.3141 7.30148 24.0797 7.16414 23.8416 7.03477C23.6872 6.95104 23.5546 6.83221 23.4546 6.68785C23.3546 6.54348 23.2899 6.37763 23.2657 6.20367L22.8727 3.42L22.8643 3.36937C22.7787 2.93822 22.5473 2.54965 22.209 2.26898C21.8707 1.98831 21.4461 1.83264 21.0066 1.82812H14.9935C14.5477 1.82955 14.1168 1.98824 13.7766 2.27623C13.4364 2.56422 13.2087 2.96304 13.1337 3.40242L13.1274 3.4418L12.7357 6.23109C12.7117 6.40456 12.6475 6.57002 12.5483 6.7143C12.449 6.85858 12.3175 6.97771 12.1641 7.06219C11.9236 7.19156 11.6888 7.32867 11.461 7.47141C11.311 7.56547 11.1408 7.62262 10.9644 7.63814C10.788 7.65366 10.6105 7.62712 10.4464 7.5607L7.83566 6.50602L7.81105 6.49617C7.39723 6.34097 6.9421 6.33576 6.52484 6.48144C6.10758 6.62712 5.75459 6.91448 5.5273 7.29352L5.51816 7.30898L2.51089 12.5086C2.28423 12.8925 2.2015 13.3444 2.2775 13.7837C2.3535 14.223 2.58328 14.6209 2.92574 14.9062L2.95878 14.933L5.17785 16.6732C5.31837 16.7844 5.43052 16.9273 5.50508 17.0902C5.57964 17.2532 5.61449 17.4315 5.60675 17.6105V18.4233C5.61379 18.6012 5.57852 18.7782 5.50384 18.9398C5.42915 19.1014 5.31719 19.2429 5.17714 19.3528L2.95878 21.0938L2.92574 21.1205C2.58362 21.4055 2.35403 21.8029 2.27802 22.2416C2.20202 22.6804 2.28457 23.1318 2.51089 23.5153L5.51394 28.7114C5.5174 28.7163 5.52045 28.7215 5.52308 28.7269C5.75063 29.105 6.10343 29.3916 6.52023 29.5367C6.93703 29.6819 7.3915 29.6764 7.80472 29.5214L7.82933 29.5123L10.4358 28.4625C10.6005 28.3959 10.7786 28.3694 10.9555 28.3852C11.1324 28.401 11.303 28.4586 11.4532 28.5532C11.6839 28.699 11.9182 28.8363 12.1564 28.9652C12.3108 29.049 12.4433 29.1678 12.5433 29.3122C12.6434 29.4565 12.7081 29.6224 12.7322 29.7963L13.1232 32.58L13.1316 32.6306C13.2173 33.0625 13.4493 33.4516 13.7885 33.7323C14.1276 34.0131 14.5532 34.1683 14.9935 34.1719H21.0066C21.4523 34.1704 21.8833 34.0118 22.2235 33.7238C22.5637 33.4358 22.7914 33.037 22.8664 32.5976L22.8727 32.5582L23.2643 29.7689C23.2887 29.5951 23.3535 29.4294 23.4533 29.2851C23.5532 29.1408 23.6854 29.0219 23.8395 28.9378C24.08 28.8084 24.3148 28.6713 24.5426 28.5286C24.6926 28.4345 24.8628 28.3774 25.0392 28.3619C25.2155 28.3463 25.3931 28.3729 25.5572 28.4393L28.1679 29.4905L28.1925 29.5003C28.6063 29.6558 29.0616 29.6611 29.4789 29.5154C29.8962 29.3697 30.2492 29.0822 30.4763 28.703C30.4791 28.6977 30.4821 28.6925 30.4854 28.6875L33.4885 23.4921C33.7156 23.1083 33.7986 22.6562 33.7227 22.2167C33.6468 21.7773 33.417 21.3792 33.0743 21.0938ZM23.6187 18.2644C23.5675 19.3532 23.201 20.4037 22.5639 21.2882C21.9267 22.1726 21.0463 22.8528 20.0297 23.2462C19.0131 23.6395 17.9041 23.729 16.8376 23.5037C15.771 23.2785 14.7929 22.7482 14.0222 21.9774C13.2515 21.2066 12.7213 20.2284 12.4962 19.1619C12.2711 18.0953 12.3607 16.9863 12.7541 15.9698C13.1476 14.9532 13.8279 14.0729 14.7125 13.4358C15.597 12.7987 16.6475 12.4324 17.7364 12.3813C18.5181 12.3469 19.2984 12.4755 20.0277 12.759C20.757 13.0425 21.4193 13.4746 21.9726 14.028C22.5258 14.5813 22.9579 15.2437 23.2413 15.973C23.5247 16.7023 23.6532 17.4827 23.6187 18.2644Z" fill="#100F32"/>
</svg>
