<svg width="25" height="25" viewBox="0 0 25 25" fill="none" xmlns="http://www.w3.org/2000/svg">
<path d="M20.621 5.76112H16.596V4.75488C16.596 4.31009 16.4193 3.88352 16.1048 3.56901C15.7903 3.2545 15.3637 3.0778 14.9189 3.0778H11.5648C11.12 3.0778 10.6934 3.2545 10.3789 3.56901C10.0644 3.88352 9.8877 4.31009 9.8877 4.75488V5.76112H5.86272C5.68481 5.76112 5.51418 5.8318 5.38838 5.95761C5.26257 6.08341 5.19189 6.25404 5.19189 6.43195C5.19189 6.60987 5.26257 6.7805 5.38838 6.9063C5.51418 7.03211 5.68481 7.10278 5.86272 7.10278H6.57548L7.37209 19.8871C7.43163 21.0129 8.29448 21.861 9.38458 21.861H17.0991C18.1947 21.861 19.0403 21.0317 19.1116 19.8905L19.9082 7.10278H20.621C20.7989 7.10278 20.9695 7.03211 21.0953 6.9063C21.2211 6.7805 21.2918 6.60987 21.2918 6.43195C21.2918 6.25404 21.2211 6.08341 21.0953 5.95761C20.9695 5.8318 20.7989 5.76112 20.621 5.76112ZM10.5824 19.1777H10.5585C10.3847 19.1778 10.2176 19.1104 10.0924 18.9898C9.9673 18.8691 9.8939 18.7045 9.8877 18.5308L9.55229 9.13917C9.54595 8.96126 9.61055 8.78811 9.73187 8.65782C9.85319 8.52754 10.0213 8.45078 10.1992 8.44444C10.3771 8.4381 10.5503 8.5027 10.6806 8.62403C10.8109 8.74535 10.8876 8.91346 10.8939 9.09137L11.2294 18.483C11.2326 18.5711 11.2184 18.659 11.1876 18.7416C11.1568 18.8242 11.11 18.8999 11.0499 18.9645C10.9898 19.029 10.9176 19.081 10.8374 19.1176C10.7572 19.1542 10.6705 19.1746 10.5824 19.1777ZM13.9127 18.5069C13.9127 18.6848 13.842 18.8554 13.7162 18.9812C13.5904 19.107 13.4198 19.1777 13.2419 19.1777C13.0639 19.1777 12.8933 19.107 12.7675 18.9812C12.6417 18.8554 12.571 18.6848 12.571 18.5069V9.11527C12.571 8.93736 12.6417 8.76673 12.7675 8.64092C12.8933 8.51512 13.0639 8.44444 13.2419 8.44444C13.4198 8.44444 13.5904 8.51512 13.7162 8.64092C13.842 8.76673 13.9127 8.93736 13.9127 9.11527V18.5069ZM15.2543 5.76112H11.2294V4.75488C11.2289 4.71069 11.2372 4.66685 11.2539 4.62593C11.2705 4.585 11.2952 4.54783 11.3265 4.51658C11.3577 4.48533 11.3949 4.46064 11.4358 4.44397C11.4767 4.42729 11.5206 4.41896 11.5648 4.41946H14.9189C14.9631 4.41896 15.007 4.42729 15.0479 4.44397C15.0888 4.46064 15.126 4.48533 15.1572 4.51658C15.1885 4.54783 15.2132 4.585 15.2298 4.62593C15.2465 4.66685 15.2548 4.71069 15.2543 4.75488V5.76112ZM16.596 18.5308C16.5898 18.7045 16.5164 18.8691 16.3913 18.9898C16.2661 19.1104 16.099 19.1778 15.9252 19.1777H15.9009C15.8128 19.1746 15.7262 19.1541 15.646 19.1175C15.5658 19.0809 15.4937 19.0288 15.4336 18.9643C15.3736 18.8998 15.3269 18.8241 15.2961 18.7415C15.2653 18.6589 15.2511 18.5711 15.2543 18.483L15.5898 9.09137C15.5929 9.00328 15.6134 8.91667 15.65 8.83648C15.6866 8.75629 15.7386 8.6841 15.8031 8.62403C15.8676 8.56395 15.9434 8.51717 16.0259 8.48636C16.1085 8.45555 16.1964 8.4413 16.2845 8.44444C16.3726 8.44758 16.4592 8.46804 16.5394 8.50465C16.6196 8.54126 16.6918 8.59331 16.7518 8.65782C16.8119 8.72233 16.8587 8.79805 16.8895 8.88064C16.9203 8.96323 16.9346 9.05108 16.9314 9.13917L16.596 18.5308Z" fill="#FA2D2D"/>
</svg>
